G04 MADE WITH FRITZING*
G04 WWW.FRITZING.ORG*
G04 DOUBLE SIDED*
G04 HOLES PLATED*
G04 CONTOUR ON CENTER OF CONTOUR VECTOR*
%ASAXBY*%
%FSLAX23Y23*%
%MOIN*%
%OFA0B0*%
%SFA1.0B1.0*%
%ADD10R,1.904840X1.214450X1.888840X1.198450*%
%ADD11C,0.008000*%
%ADD12C,0.010000*%
%ADD13R,0.001000X0.001000*%
%LNSILK1*%
G90*
G70*
G54D11*
X4Y1210D02*
X1901Y1210D01*
X1901Y4D01*
X4Y4D01*
X4Y1210D01*
D02*
G54D12*
X1405Y1110D02*
X1405Y110D01*
D02*
X1405Y110D02*
X1805Y110D01*
D02*
X1805Y110D02*
X1805Y1110D01*
D02*
X1405Y1110D02*
X1555Y1110D01*
D02*
X1655Y1110D02*
X1805Y1110D01*
D02*
X1305Y1110D02*
X1305Y110D01*
D02*
X1305Y110D02*
X1705Y110D01*
D02*
X1705Y110D02*
X1705Y1110D01*
D02*
X1305Y1110D02*
X1455Y1110D01*
D02*
X1555Y1110D02*
X1705Y1110D01*
D02*
X805Y1110D02*
X805Y110D01*
D02*
X805Y110D02*
X1205Y110D01*
D02*
X1205Y110D02*
X1205Y1110D01*
D02*
X805Y1110D02*
X955Y1110D01*
D02*
X1055Y1110D02*
X1205Y1110D01*
D02*
X705Y1110D02*
X705Y110D01*
D02*
X705Y110D02*
X1105Y110D01*
D02*
X1105Y110D02*
X1105Y1110D01*
D02*
X705Y1110D02*
X855Y1110D01*
D02*
X955Y1110D02*
X1105Y1110D01*
D02*
X205Y1110D02*
X205Y110D01*
D02*
X205Y110D02*
X605Y110D01*
D02*
X605Y110D02*
X605Y1110D01*
D02*
X205Y1110D02*
X355Y1110D01*
D02*
X455Y1110D02*
X605Y1110D01*
D02*
X105Y1110D02*
X105Y110D01*
D02*
X105Y110D02*
X505Y110D01*
D02*
X505Y110D02*
X505Y1110D01*
D02*
X105Y1110D02*
X255Y1110D01*
D02*
X355Y1110D02*
X505Y1110D01*
G54D13*
X915Y1177D02*
X939Y1177D01*
X964Y1177D02*
X964Y1177D01*
X989Y1177D02*
X1006Y1177D01*
X915Y1176D02*
X939Y1176D01*
X961Y1176D02*
X967Y1176D01*
X989Y1176D02*
X1010Y1176D01*
X915Y1175D02*
X939Y1175D01*
X960Y1175D02*
X968Y1175D01*
X989Y1175D02*
X1011Y1175D01*
X891Y1174D02*
X895Y1174D01*
X915Y1174D02*
X939Y1174D01*
X959Y1174D02*
X969Y1174D01*
X989Y1174D02*
X1012Y1174D01*
X890Y1173D02*
X895Y1173D01*
X915Y1173D02*
X939Y1173D01*
X958Y1173D02*
X970Y1173D01*
X989Y1173D02*
X1013Y1173D01*
X889Y1172D02*
X896Y1172D01*
X915Y1172D02*
X939Y1172D01*
X958Y1172D02*
X970Y1172D01*
X989Y1172D02*
X1013Y1172D01*
X888Y1171D02*
X897Y1171D01*
X915Y1171D02*
X919Y1171D01*
X925Y1171D02*
X929Y1171D01*
X935Y1171D02*
X939Y1171D01*
X957Y1171D02*
X962Y1171D01*
X966Y1171D02*
X971Y1171D01*
X989Y1171D02*
X993Y1171D01*
X1009Y1171D02*
X1013Y1171D01*
X887Y1170D02*
X898Y1170D01*
X915Y1170D02*
X919Y1170D01*
X925Y1170D02*
X929Y1170D01*
X935Y1170D02*
X939Y1170D01*
X957Y1170D02*
X962Y1170D01*
X966Y1170D02*
X971Y1170D01*
X989Y1170D02*
X993Y1170D01*
X1009Y1170D02*
X1014Y1170D01*
X887Y1169D02*
X899Y1169D01*
X915Y1169D02*
X918Y1169D01*
X925Y1169D02*
X929Y1169D01*
X935Y1169D02*
X939Y1169D01*
X956Y1169D02*
X961Y1169D01*
X967Y1169D02*
X972Y1169D01*
X989Y1169D02*
X993Y1169D01*
X1009Y1169D02*
X1014Y1169D01*
X886Y1168D02*
X891Y1168D01*
X894Y1168D02*
X900Y1168D01*
X916Y1168D02*
X918Y1168D01*
X925Y1168D02*
X929Y1168D01*
X936Y1168D02*
X938Y1168D01*
X956Y1168D02*
X961Y1168D01*
X967Y1168D02*
X972Y1168D01*
X989Y1168D02*
X993Y1168D01*
X1009Y1168D02*
X1014Y1168D01*
X885Y1167D02*
X890Y1167D01*
X895Y1167D02*
X900Y1167D01*
X925Y1167D02*
X929Y1167D01*
X955Y1167D02*
X960Y1167D01*
X968Y1167D02*
X973Y1167D01*
X989Y1167D02*
X993Y1167D01*
X1009Y1167D02*
X1014Y1167D01*
X884Y1166D02*
X889Y1166D01*
X896Y1166D02*
X901Y1166D01*
X925Y1166D02*
X929Y1166D01*
X955Y1166D02*
X960Y1166D01*
X968Y1166D02*
X973Y1166D01*
X989Y1166D02*
X993Y1166D01*
X1009Y1166D02*
X1014Y1166D01*
X883Y1165D02*
X888Y1165D01*
X897Y1165D02*
X902Y1165D01*
X925Y1165D02*
X929Y1165D01*
X954Y1165D02*
X959Y1165D01*
X969Y1165D02*
X974Y1165D01*
X989Y1165D02*
X993Y1165D01*
X1009Y1165D02*
X1014Y1165D01*
X883Y1164D02*
X887Y1164D01*
X898Y1164D02*
X903Y1164D01*
X925Y1164D02*
X929Y1164D01*
X954Y1164D02*
X959Y1164D01*
X969Y1164D02*
X974Y1164D01*
X989Y1164D02*
X993Y1164D01*
X1009Y1164D02*
X1014Y1164D01*
X882Y1163D02*
X886Y1163D01*
X899Y1163D02*
X904Y1163D01*
X925Y1163D02*
X929Y1163D01*
X953Y1163D02*
X958Y1163D01*
X970Y1163D02*
X975Y1163D01*
X989Y1163D02*
X993Y1163D01*
X1009Y1163D02*
X1014Y1163D01*
X881Y1162D02*
X886Y1162D01*
X900Y1162D02*
X905Y1162D01*
X925Y1162D02*
X929Y1162D01*
X953Y1162D02*
X958Y1162D01*
X970Y1162D02*
X975Y1162D01*
X989Y1162D02*
X993Y1162D01*
X1009Y1162D02*
X1014Y1162D01*
X880Y1161D02*
X885Y1161D01*
X901Y1161D02*
X905Y1161D01*
X925Y1161D02*
X929Y1161D01*
X952Y1161D02*
X957Y1161D01*
X971Y1161D02*
X976Y1161D01*
X989Y1161D02*
X993Y1161D01*
X1009Y1161D02*
X1014Y1161D01*
X879Y1160D02*
X884Y1160D01*
X902Y1160D02*
X906Y1160D01*
X925Y1160D02*
X929Y1160D01*
X952Y1160D02*
X957Y1160D01*
X971Y1160D02*
X976Y1160D01*
X989Y1160D02*
X993Y1160D01*
X1009Y1160D02*
X1014Y1160D01*
X925Y1159D02*
X929Y1159D01*
X952Y1159D02*
X956Y1159D01*
X972Y1159D02*
X976Y1159D01*
X989Y1159D02*
X993Y1159D01*
X1009Y1159D02*
X1013Y1159D01*
X925Y1158D02*
X929Y1158D01*
X952Y1158D02*
X956Y1158D01*
X972Y1158D02*
X976Y1158D01*
X989Y1158D02*
X993Y1158D01*
X1008Y1158D02*
X1013Y1158D01*
X925Y1157D02*
X929Y1157D01*
X952Y1157D02*
X956Y1157D01*
X972Y1157D02*
X976Y1157D01*
X989Y1157D02*
X1013Y1157D01*
X925Y1156D02*
X929Y1156D01*
X952Y1156D02*
X956Y1156D01*
X972Y1156D02*
X976Y1156D01*
X989Y1156D02*
X1012Y1156D01*
X925Y1155D02*
X929Y1155D01*
X952Y1155D02*
X956Y1155D01*
X972Y1155D02*
X976Y1155D01*
X989Y1155D02*
X1012Y1155D01*
X925Y1154D02*
X929Y1154D01*
X952Y1154D02*
X957Y1154D01*
X971Y1154D02*
X976Y1154D01*
X989Y1154D02*
X1011Y1154D01*
X925Y1153D02*
X929Y1153D01*
X952Y1153D02*
X957Y1153D01*
X971Y1153D02*
X976Y1153D01*
X989Y1153D02*
X1009Y1153D01*
X925Y1152D02*
X929Y1152D01*
X953Y1152D02*
X958Y1152D01*
X970Y1152D02*
X975Y1152D01*
X989Y1152D02*
X993Y1152D01*
X925Y1151D02*
X929Y1151D01*
X953Y1151D02*
X958Y1151D01*
X970Y1151D02*
X975Y1151D01*
X989Y1151D02*
X993Y1151D01*
X925Y1150D02*
X929Y1150D01*
X954Y1150D02*
X959Y1150D01*
X969Y1150D02*
X974Y1150D01*
X989Y1150D02*
X993Y1150D01*
X925Y1149D02*
X929Y1149D01*
X954Y1149D02*
X959Y1149D01*
X969Y1149D02*
X974Y1149D01*
X989Y1149D02*
X993Y1149D01*
X925Y1148D02*
X929Y1148D01*
X955Y1148D02*
X960Y1148D01*
X968Y1148D02*
X973Y1148D01*
X989Y1148D02*
X993Y1148D01*
X925Y1147D02*
X929Y1147D01*
X955Y1147D02*
X960Y1147D01*
X968Y1147D02*
X973Y1147D01*
X989Y1147D02*
X993Y1147D01*
X925Y1146D02*
X929Y1146D01*
X956Y1146D02*
X961Y1146D01*
X967Y1146D02*
X972Y1146D01*
X989Y1146D02*
X993Y1146D01*
X925Y1145D02*
X929Y1145D01*
X956Y1145D02*
X961Y1145D01*
X967Y1145D02*
X972Y1145D01*
X989Y1145D02*
X993Y1145D01*
X925Y1144D02*
X929Y1144D01*
X957Y1144D02*
X962Y1144D01*
X966Y1144D02*
X971Y1144D01*
X989Y1144D02*
X993Y1144D01*
X925Y1143D02*
X929Y1143D01*
X957Y1143D02*
X962Y1143D01*
X966Y1143D02*
X971Y1143D01*
X989Y1143D02*
X993Y1143D01*
X925Y1142D02*
X929Y1142D01*
X958Y1142D02*
X970Y1142D01*
X989Y1142D02*
X993Y1142D01*
X925Y1141D02*
X929Y1141D01*
X958Y1141D02*
X970Y1141D01*
X989Y1141D02*
X993Y1141D01*
X925Y1140D02*
X929Y1140D01*
X959Y1140D02*
X969Y1140D01*
X989Y1140D02*
X993Y1140D01*
X925Y1139D02*
X929Y1139D01*
X960Y1139D02*
X968Y1139D01*
X989Y1139D02*
X993Y1139D01*
X925Y1138D02*
X928Y1138D01*
X961Y1138D02*
X967Y1138D01*
X989Y1138D02*
X993Y1138D01*
X927Y1137D02*
X927Y1137D01*
X963Y1137D02*
X965Y1137D01*
X991Y1137D02*
X991Y1137D01*
X36Y1037D02*
X39Y1037D01*
X73Y1037D02*
X76Y1037D01*
X35Y1036D02*
X39Y1036D01*
X72Y1036D02*
X76Y1036D01*
X35Y1035D02*
X40Y1035D01*
X72Y1035D02*
X77Y1035D01*
X35Y1034D02*
X40Y1034D01*
X72Y1034D02*
X77Y1034D01*
X35Y1033D02*
X40Y1033D01*
X72Y1033D02*
X77Y1033D01*
X35Y1032D02*
X40Y1032D01*
X72Y1032D02*
X77Y1032D01*
X35Y1031D02*
X40Y1031D01*
X72Y1031D02*
X77Y1031D01*
X35Y1030D02*
X40Y1030D01*
X72Y1030D02*
X77Y1030D01*
X35Y1029D02*
X40Y1029D01*
X72Y1029D02*
X77Y1029D01*
X35Y1028D02*
X40Y1028D01*
X72Y1028D02*
X77Y1028D01*
X35Y1027D02*
X40Y1027D01*
X72Y1027D02*
X77Y1027D01*
X35Y1026D02*
X77Y1026D01*
X35Y1025D02*
X77Y1025D01*
X35Y1024D02*
X77Y1024D01*
X35Y1023D02*
X77Y1023D01*
X35Y1022D02*
X77Y1022D01*
X35Y1021D02*
X40Y1021D01*
X72Y1021D02*
X77Y1021D01*
X35Y1020D02*
X40Y1020D01*
X72Y1020D02*
X77Y1020D01*
X35Y1019D02*
X40Y1019D01*
X72Y1019D02*
X77Y1019D01*
X35Y1018D02*
X40Y1018D01*
X72Y1018D02*
X77Y1018D01*
X35Y1017D02*
X40Y1017D01*
X72Y1017D02*
X77Y1017D01*
X35Y1016D02*
X40Y1016D01*
X72Y1016D02*
X77Y1016D01*
X35Y1015D02*
X40Y1015D01*
X72Y1015D02*
X77Y1015D01*
X35Y1014D02*
X40Y1014D01*
X72Y1014D02*
X77Y1014D01*
X35Y1013D02*
X40Y1013D01*
X72Y1013D02*
X77Y1013D01*
X35Y1012D02*
X39Y1012D01*
X72Y1012D02*
X76Y1012D01*
X36Y1011D02*
X38Y1011D01*
X73Y1011D02*
X75Y1011D01*
X37Y998D02*
X76Y998D01*
X36Y997D02*
X77Y997D01*
X35Y996D02*
X77Y996D01*
X35Y995D02*
X77Y995D01*
X36Y994D02*
X77Y994D01*
X37Y993D02*
X77Y993D01*
X66Y992D02*
X77Y992D01*
X64Y991D02*
X76Y991D01*
X62Y990D02*
X74Y990D01*
X59Y989D02*
X72Y989D01*
X57Y988D02*
X70Y988D01*
X55Y987D02*
X67Y987D01*
X52Y986D02*
X65Y986D01*
X50Y985D02*
X63Y985D01*
X48Y984D02*
X61Y984D01*
X46Y983D02*
X58Y983D01*
X43Y982D02*
X56Y982D01*
X41Y981D02*
X54Y981D01*
X39Y980D02*
X52Y980D01*
X36Y979D02*
X49Y979D01*
X35Y978D02*
X47Y978D01*
X35Y977D02*
X45Y977D01*
X35Y976D02*
X76Y976D01*
X35Y975D02*
X76Y975D01*
X35Y974D02*
X77Y974D01*
X35Y973D02*
X76Y973D01*
X35Y972D02*
X76Y972D01*
X68Y958D02*
X77Y958D01*
X68Y957D02*
X77Y957D01*
X67Y956D02*
X77Y956D01*
X68Y955D02*
X77Y955D01*
X68Y954D02*
X77Y954D01*
X72Y953D02*
X77Y953D01*
X72Y952D02*
X77Y952D01*
X72Y951D02*
X77Y951D01*
X72Y950D02*
X77Y950D01*
X72Y949D02*
X77Y949D01*
X37Y948D02*
X77Y948D01*
X36Y947D02*
X77Y947D01*
X35Y946D02*
X77Y946D01*
X35Y945D02*
X77Y945D01*
X35Y944D02*
X77Y944D01*
X36Y943D02*
X77Y943D01*
X72Y942D02*
X77Y942D01*
X72Y941D02*
X77Y941D01*
X72Y940D02*
X77Y940D01*
X72Y939D02*
X77Y939D01*
X72Y938D02*
X77Y938D01*
X69Y937D02*
X77Y937D01*
X68Y936D02*
X77Y936D01*
X67Y935D02*
X77Y935D01*
X67Y934D02*
X77Y934D01*
X68Y933D02*
X77Y933D01*
X69Y932D02*
X76Y932D01*
X35Y919D02*
X77Y919D01*
X35Y918D02*
X77Y918D01*
X35Y917D02*
X77Y917D01*
X35Y916D02*
X77Y916D01*
X35Y915D02*
X77Y915D01*
X35Y914D02*
X77Y914D01*
X35Y913D02*
X40Y913D01*
X54Y913D02*
X58Y913D01*
X72Y913D02*
X77Y913D01*
X35Y912D02*
X40Y912D01*
X54Y912D02*
X58Y912D01*
X72Y912D02*
X77Y912D01*
X35Y911D02*
X40Y911D01*
X54Y911D02*
X58Y911D01*
X72Y911D02*
X77Y911D01*
X35Y910D02*
X40Y910D01*
X54Y910D02*
X58Y910D01*
X72Y910D02*
X77Y910D01*
X35Y909D02*
X40Y909D01*
X54Y909D02*
X58Y909D01*
X72Y909D02*
X77Y909D01*
X35Y908D02*
X40Y908D01*
X54Y908D02*
X58Y908D01*
X72Y908D02*
X77Y908D01*
X35Y907D02*
X40Y907D01*
X54Y907D02*
X58Y907D01*
X72Y907D02*
X77Y907D01*
X35Y906D02*
X40Y906D01*
X54Y906D02*
X58Y906D01*
X72Y906D02*
X77Y906D01*
X35Y905D02*
X40Y905D01*
X54Y905D02*
X58Y905D01*
X72Y905D02*
X77Y905D01*
X35Y904D02*
X40Y904D01*
X54Y904D02*
X57Y904D01*
X72Y904D02*
X77Y904D01*
X35Y903D02*
X40Y903D01*
X72Y903D02*
X77Y903D01*
X35Y902D02*
X40Y902D01*
X72Y902D02*
X77Y902D01*
X35Y901D02*
X40Y901D01*
X72Y901D02*
X77Y901D01*
X35Y900D02*
X40Y900D01*
X72Y900D02*
X77Y900D01*
X35Y899D02*
X40Y899D01*
X72Y899D02*
X77Y899D01*
X35Y898D02*
X40Y898D01*
X72Y898D02*
X77Y898D01*
X35Y897D02*
X40Y897D01*
X72Y897D02*
X77Y897D01*
X35Y896D02*
X40Y896D01*
X72Y896D02*
X77Y896D01*
X35Y895D02*
X40Y895D01*
X72Y895D02*
X77Y895D01*
X35Y894D02*
X39Y894D01*
X72Y894D02*
X76Y894D01*
X36Y893D02*
X39Y893D01*
X73Y893D02*
X76Y893D01*
X37Y880D02*
X76Y880D01*
X36Y879D02*
X77Y879D01*
X35Y878D02*
X77Y878D01*
X35Y877D02*
X77Y877D01*
X35Y876D02*
X77Y876D01*
X36Y875D02*
X77Y875D01*
X58Y874D02*
X63Y874D01*
X72Y874D02*
X77Y874D01*
X58Y873D02*
X63Y873D01*
X72Y873D02*
X77Y873D01*
X58Y872D02*
X63Y872D01*
X72Y872D02*
X77Y872D01*
X58Y871D02*
X63Y871D01*
X72Y871D02*
X77Y871D01*
X57Y870D02*
X63Y870D01*
X72Y870D02*
X77Y870D01*
X55Y869D02*
X63Y869D01*
X72Y869D02*
X77Y869D01*
X53Y868D02*
X63Y868D01*
X72Y868D02*
X77Y868D01*
X52Y867D02*
X63Y867D01*
X72Y867D02*
X77Y867D01*
X50Y866D02*
X63Y866D01*
X72Y866D02*
X77Y866D01*
X48Y865D02*
X63Y865D01*
X72Y865D02*
X77Y865D01*
X47Y864D02*
X63Y864D01*
X72Y864D02*
X77Y864D01*
X45Y863D02*
X55Y863D01*
X58Y863D02*
X63Y863D01*
X72Y863D02*
X77Y863D01*
X43Y862D02*
X53Y862D01*
X58Y862D02*
X63Y862D01*
X72Y862D02*
X77Y862D01*
X41Y861D02*
X51Y861D01*
X58Y861D02*
X63Y861D01*
X72Y861D02*
X77Y861D01*
X40Y860D02*
X50Y860D01*
X58Y860D02*
X63Y860D01*
X72Y860D02*
X76Y860D01*
X38Y859D02*
X48Y859D01*
X58Y859D02*
X64Y859D01*
X71Y859D02*
X76Y859D01*
X36Y858D02*
X46Y858D01*
X59Y858D02*
X76Y858D01*
X35Y857D02*
X45Y857D01*
X59Y857D02*
X75Y857D01*
X35Y856D02*
X43Y856D01*
X60Y856D02*
X75Y856D01*
X35Y855D02*
X41Y855D01*
X61Y855D02*
X74Y855D01*
X36Y854D02*
X39Y854D01*
X62Y854D02*
X72Y854D01*
X37Y853D02*
X37Y853D01*
X65Y853D02*
X69Y853D01*
X36Y840D02*
X77Y840D01*
X35Y839D02*
X77Y839D01*
X35Y838D02*
X77Y838D01*
X35Y837D02*
X77Y837D01*
X36Y836D02*
X77Y836D01*
X58Y835D02*
X63Y835D01*
X72Y835D02*
X77Y835D01*
X58Y834D02*
X63Y834D01*
X72Y834D02*
X77Y834D01*
X58Y833D02*
X63Y833D01*
X72Y833D02*
X77Y833D01*
X58Y832D02*
X63Y832D01*
X72Y832D02*
X77Y832D01*
X58Y831D02*
X63Y831D01*
X72Y831D02*
X77Y831D01*
X58Y830D02*
X63Y830D01*
X72Y830D02*
X77Y830D01*
X58Y829D02*
X63Y829D01*
X72Y829D02*
X77Y829D01*
X58Y828D02*
X63Y828D01*
X72Y828D02*
X77Y828D01*
X58Y827D02*
X63Y827D01*
X72Y827D02*
X77Y827D01*
X58Y826D02*
X63Y826D01*
X72Y826D02*
X77Y826D01*
X58Y825D02*
X63Y825D01*
X72Y825D02*
X77Y825D01*
X58Y824D02*
X63Y824D01*
X72Y824D02*
X77Y824D01*
X58Y823D02*
X63Y823D01*
X72Y823D02*
X77Y823D01*
X58Y822D02*
X63Y822D01*
X72Y822D02*
X77Y822D01*
X58Y821D02*
X63Y821D01*
X72Y821D02*
X77Y821D01*
X59Y820D02*
X62Y820D01*
X72Y820D02*
X77Y820D01*
X72Y819D02*
X77Y819D01*
X72Y818D02*
X77Y818D01*
X72Y817D02*
X77Y817D01*
X72Y816D02*
X77Y816D01*
X72Y815D02*
X76Y815D01*
X73Y814D02*
X75Y814D01*
X36Y801D02*
X38Y801D01*
X35Y800D02*
X42Y800D01*
X35Y799D02*
X45Y799D01*
X35Y798D02*
X49Y798D01*
X36Y797D02*
X52Y797D01*
X37Y796D02*
X55Y796D01*
X40Y795D02*
X59Y795D01*
X44Y794D02*
X62Y794D01*
X44Y793D02*
X66Y793D01*
X44Y792D02*
X69Y792D01*
X378Y792D02*
X380Y792D01*
X44Y791D02*
X49Y791D01*
X54Y791D02*
X72Y791D01*
X375Y791D02*
X382Y791D01*
X44Y790D02*
X49Y790D01*
X57Y790D02*
X75Y790D01*
X374Y790D02*
X383Y790D01*
X975Y790D02*
X982Y790D01*
X1577Y790D02*
X1581Y790D01*
X44Y789D02*
X49Y789D01*
X61Y789D02*
X76Y789D01*
X374Y789D02*
X384Y789D01*
X974Y789D02*
X983Y789D01*
X1575Y789D02*
X1583Y789D01*
X44Y788D02*
X49Y788D01*
X64Y788D02*
X77Y788D01*
X374Y788D02*
X384Y788D01*
X973Y788D02*
X983Y788D01*
X1574Y788D02*
X1583Y788D01*
X44Y787D02*
X49Y787D01*
X62Y787D02*
X76Y787D01*
X374Y787D02*
X384Y787D01*
X973Y787D02*
X983Y787D01*
X1574Y787D02*
X1584Y787D01*
X44Y786D02*
X49Y786D01*
X59Y786D02*
X76Y786D01*
X375Y786D02*
X384Y786D01*
X973Y786D02*
X983Y786D01*
X1574Y786D02*
X1584Y786D01*
X44Y785D02*
X49Y785D01*
X56Y785D02*
X74Y785D01*
X376Y785D02*
X384Y785D01*
X974Y785D02*
X983Y785D01*
X1574Y785D02*
X1584Y785D01*
X44Y784D02*
X49Y784D01*
X52Y784D02*
X71Y784D01*
X377Y784D02*
X384Y784D01*
X975Y784D02*
X983Y784D01*
X1575Y784D02*
X1584Y784D01*
X44Y783D02*
X67Y783D01*
X377Y783D02*
X384Y783D01*
X976Y783D02*
X983Y783D01*
X1576Y783D02*
X1584Y783D01*
X44Y782D02*
X64Y782D01*
X377Y782D02*
X384Y782D01*
X976Y782D02*
X983Y782D01*
X1577Y782D02*
X1584Y782D01*
X42Y781D02*
X61Y781D01*
X377Y781D02*
X384Y781D01*
X976Y781D02*
X983Y781D01*
X1577Y781D02*
X1584Y781D01*
X39Y780D02*
X57Y780D01*
X377Y780D02*
X384Y780D01*
X976Y780D02*
X983Y780D01*
X1577Y780D02*
X1584Y780D01*
X36Y779D02*
X54Y779D01*
X377Y779D02*
X384Y779D01*
X976Y779D02*
X983Y779D01*
X1577Y779D02*
X1584Y779D01*
X35Y778D02*
X50Y778D01*
X377Y778D02*
X384Y778D01*
X976Y778D02*
X983Y778D01*
X1577Y778D02*
X1584Y778D01*
X35Y777D02*
X47Y777D01*
X329Y777D02*
X348Y777D01*
X377Y777D02*
X384Y777D01*
X976Y777D02*
X983Y777D01*
X1577Y777D02*
X1584Y777D01*
X35Y776D02*
X43Y776D01*
X327Y776D02*
X350Y776D01*
X377Y776D02*
X384Y776D01*
X976Y776D02*
X983Y776D01*
X1577Y776D02*
X1584Y776D01*
X36Y775D02*
X40Y775D01*
X326Y775D02*
X351Y775D01*
X377Y775D02*
X384Y775D01*
X927Y775D02*
X950Y775D01*
X976Y775D02*
X983Y775D01*
X1529Y775D02*
X1549Y775D01*
X1577Y775D02*
X1584Y775D01*
X326Y774D02*
X352Y774D01*
X377Y774D02*
X384Y774D01*
X926Y774D02*
X951Y774D01*
X976Y774D02*
X983Y774D01*
X1527Y774D02*
X1551Y774D01*
X1577Y774D02*
X1584Y774D01*
X326Y773D02*
X353Y773D01*
X377Y773D02*
X384Y773D01*
X925Y773D02*
X951Y773D01*
X976Y773D02*
X983Y773D01*
X1526Y773D02*
X1551Y773D01*
X1577Y773D02*
X1584Y773D01*
X326Y772D02*
X354Y772D01*
X377Y772D02*
X384Y772D01*
X925Y772D02*
X952Y772D01*
X976Y772D02*
X983Y772D01*
X1526Y772D02*
X1552Y772D01*
X1577Y772D02*
X1584Y772D01*
X326Y771D02*
X355Y771D01*
X377Y771D02*
X384Y771D01*
X925Y771D02*
X953Y771D01*
X976Y771D02*
X983Y771D01*
X1526Y771D02*
X1553Y771D01*
X1577Y771D02*
X1584Y771D01*
X327Y770D02*
X355Y770D01*
X377Y770D02*
X384Y770D01*
X926Y770D02*
X954Y770D01*
X976Y770D02*
X983Y770D01*
X1526Y770D02*
X1554Y770D01*
X1577Y770D02*
X1584Y770D01*
X347Y769D02*
X356Y769D01*
X377Y769D02*
X384Y769D01*
X927Y769D02*
X955Y769D01*
X976Y769D02*
X983Y769D01*
X1527Y769D02*
X1555Y769D01*
X1577Y769D02*
X1584Y769D01*
X348Y768D02*
X357Y768D01*
X377Y768D02*
X384Y768D01*
X946Y768D02*
X956Y768D01*
X976Y768D02*
X983Y768D01*
X1528Y768D02*
X1556Y768D01*
X1577Y768D02*
X1584Y768D01*
X349Y767D02*
X358Y767D01*
X377Y767D02*
X384Y767D01*
X947Y767D02*
X956Y767D01*
X976Y767D02*
X983Y767D01*
X1547Y767D02*
X1557Y767D01*
X1577Y767D02*
X1584Y767D01*
X350Y766D02*
X359Y766D01*
X377Y766D02*
X384Y766D01*
X948Y766D02*
X957Y766D01*
X976Y766D02*
X983Y766D01*
X1548Y766D02*
X1557Y766D01*
X1577Y766D02*
X1584Y766D01*
X351Y765D02*
X360Y765D01*
X377Y765D02*
X384Y765D01*
X949Y765D02*
X958Y765D01*
X976Y765D02*
X983Y765D01*
X1549Y765D02*
X1558Y765D01*
X1577Y765D02*
X1584Y765D01*
X352Y764D02*
X361Y764D01*
X377Y764D02*
X384Y764D01*
X950Y764D02*
X959Y764D01*
X976Y764D02*
X983Y764D01*
X1550Y764D02*
X1559Y764D01*
X1577Y764D02*
X1584Y764D01*
X352Y763D02*
X361Y763D01*
X377Y763D02*
X384Y763D01*
X951Y763D02*
X960Y763D01*
X976Y763D02*
X983Y763D01*
X1551Y763D02*
X1560Y763D01*
X1577Y763D02*
X1584Y763D01*
X353Y762D02*
X363Y762D01*
X377Y762D02*
X384Y762D01*
X952Y762D02*
X961Y762D01*
X976Y762D02*
X983Y762D01*
X1552Y762D02*
X1561Y762D01*
X1577Y762D02*
X1584Y762D01*
X52Y761D02*
X60Y761D01*
X354Y761D02*
X384Y761D01*
X953Y761D02*
X962Y761D01*
X976Y761D02*
X983Y761D01*
X1553Y761D02*
X1562Y761D01*
X1577Y761D02*
X1584Y761D01*
X50Y760D02*
X62Y760D01*
X355Y760D02*
X384Y760D01*
X953Y760D02*
X983Y760D01*
X1553Y760D02*
X1584Y760D01*
X47Y759D02*
X64Y759D01*
X356Y759D02*
X384Y759D01*
X954Y759D02*
X983Y759D01*
X1554Y759D02*
X1584Y759D01*
X45Y758D02*
X66Y758D01*
X357Y758D02*
X384Y758D01*
X955Y758D02*
X983Y758D01*
X1555Y758D02*
X1584Y758D01*
X43Y757D02*
X68Y757D01*
X357Y757D02*
X384Y757D01*
X956Y757D02*
X983Y757D01*
X1556Y757D02*
X1584Y757D01*
X42Y756D02*
X53Y756D01*
X59Y756D02*
X70Y756D01*
X358Y756D02*
X384Y756D01*
X957Y756D02*
X983Y756D01*
X1557Y756D02*
X1584Y756D01*
X40Y755D02*
X51Y755D01*
X61Y755D02*
X72Y755D01*
X359Y755D02*
X384Y755D01*
X958Y755D02*
X983Y755D01*
X1558Y755D02*
X1584Y755D01*
X38Y754D02*
X49Y754D01*
X63Y754D02*
X74Y754D01*
X959Y754D02*
X983Y754D01*
X1559Y754D02*
X1584Y754D01*
X37Y753D02*
X47Y753D01*
X65Y753D02*
X75Y753D01*
X1560Y753D02*
X1584Y753D01*
X36Y752D02*
X45Y752D01*
X67Y752D02*
X75Y752D01*
X36Y751D02*
X43Y751D01*
X69Y751D02*
X76Y751D01*
X35Y750D02*
X41Y750D01*
X71Y750D02*
X76Y750D01*
X35Y749D02*
X40Y749D01*
X72Y749D02*
X76Y749D01*
X35Y748D02*
X40Y748D01*
X72Y748D02*
X77Y748D01*
X35Y747D02*
X40Y747D01*
X72Y747D02*
X77Y747D01*
X35Y746D02*
X40Y746D01*
X72Y746D02*
X77Y746D01*
X35Y745D02*
X40Y745D01*
X72Y745D02*
X77Y745D01*
X35Y744D02*
X40Y744D01*
X72Y744D02*
X77Y744D01*
X35Y743D02*
X40Y743D01*
X72Y743D02*
X77Y743D01*
X35Y742D02*
X40Y742D01*
X72Y742D02*
X77Y742D01*
X35Y741D02*
X40Y741D01*
X72Y741D02*
X77Y741D01*
X35Y740D02*
X40Y740D01*
X72Y740D02*
X77Y740D01*
X35Y739D02*
X40Y739D01*
X72Y739D02*
X77Y739D01*
X35Y738D02*
X40Y738D01*
X72Y738D02*
X77Y738D01*
X35Y737D02*
X40Y737D01*
X72Y737D02*
X77Y737D01*
X36Y736D02*
X39Y736D01*
X73Y736D02*
X76Y736D01*
X37Y735D02*
X38Y735D01*
X74Y735D02*
X75Y735D01*
X345Y735D02*
X382Y735D01*
X345Y734D02*
X383Y734D01*
X945Y734D02*
X981Y734D01*
X345Y733D02*
X383Y733D01*
X944Y733D02*
X982Y733D01*
X1545Y733D02*
X1582Y733D01*
X345Y732D02*
X384Y732D01*
X944Y732D02*
X983Y732D01*
X1545Y732D02*
X1583Y732D01*
X345Y731D02*
X384Y731D01*
X944Y731D02*
X983Y731D01*
X1545Y731D02*
X1584Y731D01*
X345Y730D02*
X383Y730D01*
X944Y730D02*
X983Y730D01*
X1545Y730D02*
X1584Y730D01*
X345Y729D02*
X383Y729D01*
X944Y729D02*
X983Y729D01*
X1545Y729D02*
X1584Y729D01*
X345Y728D02*
X381Y728D01*
X944Y728D02*
X982Y728D01*
X1545Y728D02*
X1583Y728D01*
X345Y727D02*
X352Y727D01*
X944Y727D02*
X981Y727D01*
X1545Y727D02*
X1583Y727D01*
X345Y726D02*
X352Y726D01*
X944Y726D02*
X951Y726D01*
X1545Y726D02*
X1581Y726D01*
X345Y725D02*
X352Y725D01*
X944Y725D02*
X951Y725D01*
X1545Y725D02*
X1552Y725D01*
X345Y724D02*
X352Y724D01*
X944Y724D02*
X951Y724D01*
X1545Y724D02*
X1552Y724D01*
X345Y723D02*
X352Y723D01*
X944Y723D02*
X951Y723D01*
X1545Y723D02*
X1552Y723D01*
X35Y722D02*
X77Y722D01*
X345Y722D02*
X352Y722D01*
X944Y722D02*
X951Y722D01*
X1545Y722D02*
X1552Y722D01*
X35Y721D02*
X77Y721D01*
X345Y721D02*
X352Y721D01*
X944Y721D02*
X951Y721D01*
X1545Y721D02*
X1552Y721D01*
X35Y720D02*
X77Y720D01*
X345Y720D02*
X352Y720D01*
X944Y720D02*
X951Y720D01*
X1545Y720D02*
X1552Y720D01*
X35Y719D02*
X77Y719D01*
X345Y719D02*
X352Y719D01*
X944Y719D02*
X951Y719D01*
X1545Y719D02*
X1552Y719D01*
X35Y718D02*
X77Y718D01*
X345Y718D02*
X352Y718D01*
X944Y718D02*
X951Y718D01*
X1545Y718D02*
X1552Y718D01*
X35Y717D02*
X77Y717D01*
X345Y717D02*
X352Y717D01*
X944Y717D02*
X951Y717D01*
X1545Y717D02*
X1552Y717D01*
X35Y716D02*
X40Y716D01*
X54Y716D02*
X58Y716D01*
X72Y716D02*
X77Y716D01*
X345Y716D02*
X352Y716D01*
X944Y716D02*
X951Y716D01*
X1545Y716D02*
X1552Y716D01*
X35Y715D02*
X40Y715D01*
X54Y715D02*
X58Y715D01*
X72Y715D02*
X77Y715D01*
X345Y715D02*
X352Y715D01*
X944Y715D02*
X951Y715D01*
X1545Y715D02*
X1552Y715D01*
X35Y714D02*
X40Y714D01*
X54Y714D02*
X58Y714D01*
X72Y714D02*
X77Y714D01*
X345Y714D02*
X352Y714D01*
X944Y714D02*
X951Y714D01*
X1545Y714D02*
X1552Y714D01*
X35Y713D02*
X40Y713D01*
X54Y713D02*
X58Y713D01*
X72Y713D02*
X77Y713D01*
X345Y713D02*
X352Y713D01*
X944Y713D02*
X951Y713D01*
X1545Y713D02*
X1552Y713D01*
X35Y712D02*
X40Y712D01*
X54Y712D02*
X58Y712D01*
X72Y712D02*
X77Y712D01*
X327Y712D02*
X376Y712D01*
X944Y712D02*
X951Y712D01*
X1545Y712D02*
X1552Y712D01*
X35Y711D02*
X40Y711D01*
X54Y711D02*
X58Y711D01*
X72Y711D02*
X77Y711D01*
X326Y711D02*
X377Y711D01*
X927Y711D02*
X975Y711D01*
X1530Y711D02*
X1574Y711D01*
X35Y710D02*
X40Y710D01*
X54Y710D02*
X58Y710D01*
X72Y710D02*
X77Y710D01*
X326Y710D02*
X377Y710D01*
X926Y710D02*
X976Y710D01*
X1527Y710D02*
X1576Y710D01*
X35Y709D02*
X40Y709D01*
X54Y709D02*
X58Y709D01*
X72Y709D02*
X77Y709D01*
X326Y709D02*
X377Y709D01*
X925Y709D02*
X977Y709D01*
X1526Y709D02*
X1577Y709D01*
X35Y708D02*
X40Y708D01*
X54Y708D02*
X58Y708D01*
X72Y708D02*
X77Y708D01*
X326Y708D02*
X377Y708D01*
X925Y708D02*
X977Y708D01*
X1526Y708D02*
X1577Y708D01*
X35Y707D02*
X40Y707D01*
X54Y707D02*
X57Y707D01*
X72Y707D02*
X77Y707D01*
X326Y707D02*
X377Y707D01*
X925Y707D02*
X977Y707D01*
X1526Y707D02*
X1577Y707D01*
X35Y706D02*
X40Y706D01*
X72Y706D02*
X77Y706D01*
X327Y706D02*
X376Y706D01*
X926Y706D02*
X976Y706D01*
X1526Y706D02*
X1577Y706D01*
X35Y705D02*
X40Y705D01*
X72Y705D02*
X77Y705D01*
X345Y705D02*
X352Y705D01*
X926Y705D02*
X975Y705D01*
X1526Y705D02*
X1577Y705D01*
X35Y704D02*
X40Y704D01*
X72Y704D02*
X77Y704D01*
X345Y704D02*
X351Y704D01*
X944Y704D02*
X951Y704D01*
X1527Y704D02*
X1576Y704D01*
X35Y703D02*
X40Y703D01*
X72Y703D02*
X77Y703D01*
X346Y703D02*
X351Y703D01*
X945Y703D02*
X951Y703D01*
X1545Y703D02*
X1552Y703D01*
X35Y702D02*
X40Y702D01*
X72Y702D02*
X77Y702D01*
X347Y702D02*
X350Y702D01*
X945Y702D02*
X950Y702D01*
X1545Y702D02*
X1551Y702D01*
X35Y701D02*
X40Y701D01*
X72Y701D02*
X77Y701D01*
X946Y701D02*
X949Y701D01*
X1546Y701D02*
X1551Y701D01*
X35Y700D02*
X40Y700D01*
X72Y700D02*
X77Y700D01*
X1547Y700D02*
X1550Y700D01*
X35Y699D02*
X40Y699D01*
X72Y699D02*
X77Y699D01*
X35Y698D02*
X40Y698D01*
X72Y698D02*
X77Y698D01*
X35Y697D02*
X39Y697D01*
X72Y697D02*
X76Y697D01*
X36Y696D02*
X39Y696D01*
X73Y696D02*
X76Y696D01*
X37Y683D02*
X76Y683D01*
X36Y682D02*
X77Y682D01*
X326Y682D02*
X382Y682D01*
X35Y681D02*
X77Y681D01*
X326Y681D02*
X383Y681D01*
X925Y681D02*
X981Y681D01*
X35Y680D02*
X77Y680D01*
X326Y680D02*
X383Y680D01*
X925Y680D02*
X982Y680D01*
X1526Y680D02*
X1582Y680D01*
X35Y679D02*
X77Y679D01*
X326Y679D02*
X384Y679D01*
X925Y679D02*
X983Y679D01*
X1526Y679D02*
X1583Y679D01*
X36Y678D02*
X77Y678D01*
X326Y678D02*
X384Y678D01*
X925Y678D02*
X983Y678D01*
X1526Y678D02*
X1584Y678D01*
X58Y677D02*
X63Y677D01*
X72Y677D02*
X77Y677D01*
X326Y677D02*
X383Y677D01*
X925Y677D02*
X983Y677D01*
X1526Y677D02*
X1584Y677D01*
X58Y676D02*
X63Y676D01*
X72Y676D02*
X77Y676D01*
X326Y676D02*
X382Y676D01*
X925Y676D02*
X983Y676D01*
X1526Y676D02*
X1584Y676D01*
X58Y675D02*
X63Y675D01*
X72Y675D02*
X77Y675D01*
X326Y675D02*
X381Y675D01*
X925Y675D02*
X982Y675D01*
X1526Y675D02*
X1583Y675D01*
X58Y674D02*
X63Y674D01*
X72Y674D02*
X77Y674D01*
X326Y674D02*
X332Y674D01*
X925Y674D02*
X981Y674D01*
X1526Y674D02*
X1582Y674D01*
X57Y673D02*
X63Y673D01*
X72Y673D02*
X77Y673D01*
X326Y673D02*
X332Y673D01*
X925Y673D02*
X932Y673D01*
X1526Y673D02*
X1533Y673D01*
X55Y672D02*
X63Y672D01*
X72Y672D02*
X77Y672D01*
X326Y672D02*
X332Y672D01*
X925Y672D02*
X932Y672D01*
X1526Y672D02*
X1532Y672D01*
X53Y671D02*
X63Y671D01*
X72Y671D02*
X77Y671D01*
X326Y671D02*
X332Y671D01*
X925Y671D02*
X932Y671D01*
X1526Y671D02*
X1532Y671D01*
X52Y670D02*
X63Y670D01*
X72Y670D02*
X77Y670D01*
X326Y670D02*
X332Y670D01*
X925Y670D02*
X932Y670D01*
X1526Y670D02*
X1532Y670D01*
X50Y669D02*
X63Y669D01*
X72Y669D02*
X77Y669D01*
X326Y669D02*
X332Y669D01*
X925Y669D02*
X932Y669D01*
X1526Y669D02*
X1532Y669D01*
X48Y668D02*
X63Y668D01*
X72Y668D02*
X77Y668D01*
X326Y668D02*
X332Y668D01*
X925Y668D02*
X932Y668D01*
X1526Y668D02*
X1532Y668D01*
X47Y667D02*
X63Y667D01*
X72Y667D02*
X77Y667D01*
X326Y667D02*
X332Y667D01*
X925Y667D02*
X932Y667D01*
X1526Y667D02*
X1532Y667D01*
X45Y666D02*
X55Y666D01*
X58Y666D02*
X63Y666D01*
X72Y666D02*
X77Y666D01*
X326Y666D02*
X332Y666D01*
X925Y666D02*
X932Y666D01*
X1526Y666D02*
X1532Y666D01*
X43Y665D02*
X53Y665D01*
X58Y665D02*
X63Y665D01*
X72Y665D02*
X77Y665D01*
X326Y665D02*
X332Y665D01*
X925Y665D02*
X932Y665D01*
X1526Y665D02*
X1532Y665D01*
X41Y664D02*
X51Y664D01*
X58Y664D02*
X63Y664D01*
X72Y664D02*
X77Y664D01*
X326Y664D02*
X332Y664D01*
X925Y664D02*
X932Y664D01*
X1526Y664D02*
X1532Y664D01*
X40Y663D02*
X50Y663D01*
X58Y663D02*
X63Y663D01*
X72Y663D02*
X76Y663D01*
X326Y663D02*
X332Y663D01*
X925Y663D02*
X932Y663D01*
X1526Y663D02*
X1532Y663D01*
X38Y662D02*
X48Y662D01*
X58Y662D02*
X64Y662D01*
X71Y662D02*
X76Y662D01*
X326Y662D02*
X332Y662D01*
X925Y662D02*
X932Y662D01*
X1526Y662D02*
X1532Y662D01*
X36Y661D02*
X46Y661D01*
X59Y661D02*
X76Y661D01*
X326Y661D02*
X332Y661D01*
X925Y661D02*
X932Y661D01*
X1526Y661D02*
X1532Y661D01*
X35Y660D02*
X45Y660D01*
X59Y660D02*
X75Y660D01*
X326Y660D02*
X332Y660D01*
X925Y660D02*
X932Y660D01*
X1526Y660D02*
X1532Y660D01*
X35Y659D02*
X43Y659D01*
X60Y659D02*
X75Y659D01*
X326Y659D02*
X332Y659D01*
X925Y659D02*
X932Y659D01*
X1526Y659D02*
X1532Y659D01*
X35Y658D02*
X41Y658D01*
X61Y658D02*
X74Y658D01*
X326Y658D02*
X332Y658D01*
X925Y658D02*
X932Y658D01*
X1526Y658D02*
X1532Y658D01*
X36Y657D02*
X39Y657D01*
X62Y657D02*
X72Y657D01*
X326Y657D02*
X332Y657D01*
X925Y657D02*
X932Y657D01*
X1526Y657D02*
X1532Y657D01*
X37Y656D02*
X37Y656D01*
X65Y656D02*
X69Y656D01*
X326Y656D02*
X332Y656D01*
X925Y656D02*
X932Y656D01*
X1526Y656D02*
X1532Y656D01*
X326Y655D02*
X332Y655D01*
X925Y655D02*
X932Y655D01*
X1526Y655D02*
X1532Y655D01*
X326Y654D02*
X332Y654D01*
X925Y654D02*
X932Y654D01*
X1526Y654D02*
X1532Y654D01*
X326Y653D02*
X332Y653D01*
X925Y653D02*
X932Y653D01*
X1526Y653D02*
X1532Y653D01*
X326Y652D02*
X332Y652D01*
X925Y652D02*
X932Y652D01*
X1526Y652D02*
X1532Y652D01*
X326Y651D02*
X332Y651D01*
X925Y651D02*
X932Y651D01*
X1526Y651D02*
X1532Y651D01*
X326Y650D02*
X332Y650D01*
X925Y650D02*
X932Y650D01*
X1526Y650D02*
X1532Y650D01*
X326Y649D02*
X332Y649D01*
X925Y649D02*
X932Y649D01*
X1526Y649D02*
X1532Y649D01*
X326Y648D02*
X332Y648D01*
X925Y648D02*
X932Y648D01*
X1526Y648D02*
X1532Y648D01*
X326Y647D02*
X332Y647D01*
X925Y647D02*
X932Y647D01*
X1526Y647D02*
X1532Y647D01*
X327Y646D02*
X331Y646D01*
X925Y646D02*
X931Y646D01*
X1526Y646D02*
X1532Y646D01*
X329Y645D02*
X329Y645D01*
X926Y645D02*
X931Y645D01*
X1526Y645D02*
X1532Y645D01*
X927Y644D02*
X929Y644D01*
X1527Y644D02*
X1531Y644D01*
X1529Y643D02*
X1529Y643D01*
X332Y627D02*
X337Y627D01*
X372Y627D02*
X379Y627D01*
X330Y626D02*
X338Y626D01*
X371Y626D02*
X380Y626D01*
X932Y626D02*
X936Y626D01*
X972Y626D02*
X978Y626D01*
X329Y625D02*
X339Y625D01*
X369Y625D02*
X381Y625D01*
X930Y625D02*
X938Y625D01*
X970Y625D02*
X980Y625D01*
X1532Y625D02*
X1537Y625D01*
X1572Y625D02*
X1579Y625D01*
X328Y624D02*
X339Y624D01*
X368Y624D02*
X382Y624D01*
X929Y624D02*
X938Y624D01*
X969Y624D02*
X981Y624D01*
X1530Y624D02*
X1538Y624D01*
X1571Y624D02*
X1581Y624D01*
X327Y623D02*
X339Y623D01*
X367Y623D02*
X383Y623D01*
X928Y623D02*
X938Y623D01*
X968Y623D02*
X982Y623D01*
X1529Y623D02*
X1539Y623D01*
X1569Y623D02*
X1582Y623D01*
X327Y622D02*
X338Y622D01*
X365Y622D02*
X383Y622D01*
X927Y622D02*
X938Y622D01*
X966Y622D02*
X982Y622D01*
X1528Y622D02*
X1539Y622D01*
X1568Y622D02*
X1582Y622D01*
X326Y621D02*
X337Y621D01*
X364Y621D02*
X383Y621D01*
X926Y621D02*
X938Y621D01*
X965Y621D02*
X983Y621D01*
X1527Y621D02*
X1539Y621D01*
X1567Y621D02*
X1583Y621D01*
X326Y620D02*
X334Y620D01*
X363Y620D02*
X375Y620D01*
X377Y620D02*
X384Y620D01*
X926Y620D02*
X937Y620D01*
X964Y620D02*
X983Y620D01*
X1527Y620D02*
X1538Y620D01*
X1565Y620D02*
X1583Y620D01*
X326Y619D02*
X333Y619D01*
X362Y619D02*
X373Y619D01*
X377Y619D02*
X384Y619D01*
X925Y619D02*
X934Y619D01*
X963Y619D02*
X983Y619D01*
X1526Y619D02*
X1537Y619D01*
X1564Y619D02*
X1584Y619D01*
X326Y618D02*
X332Y618D01*
X360Y618D02*
X372Y618D01*
X377Y618D02*
X384Y618D01*
X925Y618D02*
X932Y618D01*
X961Y618D02*
X973Y618D01*
X976Y618D02*
X983Y618D01*
X1526Y618D02*
X1534Y618D01*
X1563Y618D02*
X1574Y618D01*
X1577Y618D02*
X1584Y618D01*
X326Y617D02*
X332Y617D01*
X359Y617D02*
X371Y617D01*
X377Y617D02*
X384Y617D01*
X925Y617D02*
X932Y617D01*
X960Y617D02*
X972Y617D01*
X976Y617D02*
X983Y617D01*
X1526Y617D02*
X1533Y617D01*
X1562Y617D02*
X1573Y617D01*
X1577Y617D02*
X1584Y617D01*
X326Y616D02*
X332Y616D01*
X358Y616D02*
X369Y616D01*
X377Y616D02*
X384Y616D01*
X925Y616D02*
X932Y616D01*
X959Y616D02*
X970Y616D01*
X976Y616D02*
X983Y616D01*
X1526Y616D02*
X1532Y616D01*
X1560Y616D02*
X1572Y616D01*
X1577Y616D02*
X1584Y616D01*
X326Y615D02*
X332Y615D01*
X356Y615D02*
X368Y615D01*
X377Y615D02*
X384Y615D01*
X925Y615D02*
X932Y615D01*
X957Y615D02*
X969Y615D01*
X976Y615D02*
X983Y615D01*
X1526Y615D02*
X1532Y615D01*
X1559Y615D02*
X1571Y615D01*
X1577Y615D02*
X1584Y615D01*
X326Y614D02*
X332Y614D01*
X355Y614D02*
X367Y614D01*
X377Y614D02*
X384Y614D01*
X925Y614D02*
X932Y614D01*
X956Y614D02*
X968Y614D01*
X976Y614D02*
X983Y614D01*
X1526Y614D02*
X1532Y614D01*
X1558Y614D02*
X1569Y614D01*
X1577Y614D02*
X1584Y614D01*
X326Y613D02*
X332Y613D01*
X354Y613D02*
X365Y613D01*
X377Y613D02*
X384Y613D01*
X925Y613D02*
X932Y613D01*
X955Y613D02*
X966Y613D01*
X976Y613D02*
X983Y613D01*
X1526Y613D02*
X1532Y613D01*
X1556Y613D02*
X1568Y613D01*
X1577Y613D02*
X1584Y613D01*
X326Y612D02*
X332Y612D01*
X353Y612D02*
X364Y612D01*
X377Y612D02*
X384Y612D01*
X925Y612D02*
X932Y612D01*
X954Y612D02*
X965Y612D01*
X976Y612D02*
X983Y612D01*
X1526Y612D02*
X1532Y612D01*
X1555Y612D02*
X1567Y612D01*
X1577Y612D02*
X1584Y612D01*
X326Y611D02*
X332Y611D01*
X351Y611D02*
X363Y611D01*
X377Y611D02*
X384Y611D01*
X925Y611D02*
X932Y611D01*
X952Y611D02*
X964Y611D01*
X976Y611D02*
X983Y611D01*
X1526Y611D02*
X1532Y611D01*
X1554Y611D02*
X1565Y611D01*
X1577Y611D02*
X1584Y611D01*
X326Y610D02*
X332Y610D01*
X350Y610D02*
X362Y610D01*
X377Y610D02*
X384Y610D01*
X925Y610D02*
X932Y610D01*
X951Y610D02*
X963Y610D01*
X976Y610D02*
X983Y610D01*
X1526Y610D02*
X1532Y610D01*
X1553Y610D02*
X1564Y610D01*
X1577Y610D02*
X1584Y610D01*
X326Y609D02*
X332Y609D01*
X349Y609D02*
X360Y609D01*
X377Y609D02*
X384Y609D01*
X925Y609D02*
X932Y609D01*
X950Y609D02*
X961Y609D01*
X976Y609D02*
X983Y609D01*
X1526Y609D02*
X1532Y609D01*
X1551Y609D02*
X1563Y609D01*
X1577Y609D02*
X1584Y609D01*
X326Y608D02*
X332Y608D01*
X347Y608D02*
X359Y608D01*
X377Y608D02*
X384Y608D01*
X925Y608D02*
X932Y608D01*
X948Y608D02*
X960Y608D01*
X976Y608D02*
X983Y608D01*
X1526Y608D02*
X1532Y608D01*
X1550Y608D02*
X1562Y608D01*
X1577Y608D02*
X1584Y608D01*
X326Y607D02*
X332Y607D01*
X346Y607D02*
X358Y607D01*
X377Y607D02*
X384Y607D01*
X925Y607D02*
X932Y607D01*
X947Y607D02*
X959Y607D01*
X976Y607D02*
X983Y607D01*
X1526Y607D02*
X1532Y607D01*
X1549Y607D02*
X1560Y607D01*
X1577Y607D02*
X1584Y607D01*
X326Y606D02*
X332Y606D01*
X345Y606D02*
X356Y606D01*
X377Y606D02*
X384Y606D01*
X925Y606D02*
X932Y606D01*
X946Y606D02*
X957Y606D01*
X976Y606D02*
X983Y606D01*
X1526Y606D02*
X1532Y606D01*
X1547Y606D02*
X1559Y606D01*
X1577Y606D02*
X1584Y606D01*
X326Y605D02*
X332Y605D01*
X344Y605D02*
X355Y605D01*
X377Y605D02*
X384Y605D01*
X925Y605D02*
X932Y605D01*
X945Y605D02*
X956Y605D01*
X976Y605D02*
X983Y605D01*
X1526Y605D02*
X1532Y605D01*
X1546Y605D02*
X1558Y605D01*
X1577Y605D02*
X1584Y605D01*
X37Y604D02*
X38Y604D01*
X74Y604D02*
X75Y604D01*
X326Y604D02*
X332Y604D01*
X342Y604D02*
X354Y604D01*
X377Y604D02*
X384Y604D01*
X925Y604D02*
X932Y604D01*
X943Y604D02*
X955Y604D01*
X976Y604D02*
X983Y604D01*
X1526Y604D02*
X1532Y604D01*
X1545Y604D02*
X1556Y604D01*
X1577Y604D02*
X1584Y604D01*
X35Y603D02*
X39Y603D01*
X72Y603D02*
X76Y603D01*
X326Y603D02*
X332Y603D01*
X341Y603D02*
X353Y603D01*
X377Y603D02*
X384Y603D01*
X925Y603D02*
X932Y603D01*
X942Y603D02*
X954Y603D01*
X976Y603D02*
X983Y603D01*
X1526Y603D02*
X1532Y603D01*
X1544Y603D02*
X1555Y603D01*
X1577Y603D02*
X1584Y603D01*
X35Y602D02*
X40Y602D01*
X72Y602D02*
X77Y602D01*
X326Y602D02*
X332Y602D01*
X340Y602D02*
X351Y602D01*
X377Y602D02*
X384Y602D01*
X925Y602D02*
X932Y602D01*
X941Y602D02*
X952Y602D01*
X976Y602D02*
X983Y602D01*
X1526Y602D02*
X1532Y602D01*
X1542Y602D02*
X1554Y602D01*
X1577Y602D02*
X1584Y602D01*
X35Y601D02*
X40Y601D01*
X72Y601D02*
X77Y601D01*
X326Y601D02*
X332Y601D01*
X338Y601D02*
X350Y601D01*
X377Y601D02*
X384Y601D01*
X925Y601D02*
X932Y601D01*
X939Y601D02*
X951Y601D01*
X976Y601D02*
X983Y601D01*
X1526Y601D02*
X1532Y601D01*
X1541Y601D02*
X1553Y601D01*
X1577Y601D02*
X1584Y601D01*
X35Y600D02*
X40Y600D01*
X72Y600D02*
X77Y600D01*
X326Y600D02*
X332Y600D01*
X337Y600D02*
X349Y600D01*
X377Y600D02*
X384Y600D01*
X925Y600D02*
X932Y600D01*
X938Y600D02*
X950Y600D01*
X976Y600D02*
X983Y600D01*
X1526Y600D02*
X1532Y600D01*
X1540Y600D02*
X1551Y600D01*
X1577Y600D02*
X1584Y600D01*
X35Y599D02*
X40Y599D01*
X72Y599D02*
X77Y599D01*
X326Y599D02*
X332Y599D01*
X336Y599D02*
X347Y599D01*
X377Y599D02*
X384Y599D01*
X925Y599D02*
X932Y599D01*
X937Y599D02*
X948Y599D01*
X976Y599D02*
X983Y599D01*
X1526Y599D02*
X1532Y599D01*
X1538Y599D02*
X1550Y599D01*
X1577Y599D02*
X1584Y599D01*
X35Y598D02*
X40Y598D01*
X72Y598D02*
X77Y598D01*
X326Y598D02*
X346Y598D01*
X375Y598D02*
X383Y598D01*
X925Y598D02*
X932Y598D01*
X936Y598D02*
X947Y598D01*
X976Y598D02*
X983Y598D01*
X1526Y598D02*
X1532Y598D01*
X1537Y598D02*
X1549Y598D01*
X1577Y598D02*
X1584Y598D01*
X35Y597D02*
X40Y597D01*
X72Y597D02*
X77Y597D01*
X326Y597D02*
X345Y597D01*
X372Y597D02*
X383Y597D01*
X925Y597D02*
X932Y597D01*
X934Y597D02*
X946Y597D01*
X975Y597D02*
X983Y597D01*
X1526Y597D02*
X1532Y597D01*
X1536Y597D02*
X1547Y597D01*
X1577Y597D02*
X1584Y597D01*
X35Y596D02*
X40Y596D01*
X72Y596D02*
X77Y596D01*
X326Y596D02*
X344Y596D01*
X371Y596D02*
X383Y596D01*
X925Y596D02*
X945Y596D01*
X972Y596D02*
X983Y596D01*
X1526Y596D02*
X1546Y596D01*
X1575Y596D02*
X1583Y596D01*
X35Y595D02*
X40Y595D01*
X72Y595D02*
X77Y595D01*
X326Y595D02*
X342Y595D01*
X371Y595D02*
X382Y595D01*
X925Y595D02*
X943Y595D01*
X971Y595D02*
X982Y595D01*
X1526Y595D02*
X1545Y595D01*
X1572Y595D02*
X1583Y595D01*
X35Y594D02*
X40Y594D01*
X72Y594D02*
X77Y594D01*
X327Y594D02*
X341Y594D01*
X371Y594D02*
X381Y594D01*
X926Y594D02*
X942Y594D01*
X970Y594D02*
X982Y594D01*
X1526Y594D02*
X1544Y594D01*
X1571Y594D02*
X1583Y594D01*
X35Y593D02*
X77Y593D01*
X328Y593D02*
X340Y593D01*
X371Y593D02*
X380Y593D01*
X926Y593D02*
X941Y593D01*
X970Y593D02*
X981Y593D01*
X1527Y593D02*
X1542Y593D01*
X1571Y593D02*
X1582Y593D01*
X35Y592D02*
X77Y592D01*
X329Y592D02*
X338Y592D01*
X371Y592D02*
X379Y592D01*
X927Y592D02*
X939Y592D01*
X970Y592D02*
X980Y592D01*
X1527Y592D02*
X1541Y592D01*
X1571Y592D02*
X1581Y592D01*
X35Y591D02*
X77Y591D01*
X331Y591D02*
X337Y591D01*
X372Y591D02*
X377Y591D01*
X928Y591D02*
X938Y591D01*
X971Y591D02*
X979Y591D01*
X1528Y591D02*
X1540Y591D01*
X1571Y591D02*
X1580Y591D01*
X35Y590D02*
X77Y590D01*
X930Y590D02*
X937Y590D01*
X971Y590D02*
X977Y590D01*
X1529Y590D02*
X1538Y590D01*
X1571Y590D02*
X1579Y590D01*
X35Y589D02*
X77Y589D01*
X933Y589D02*
X933Y589D01*
X973Y589D02*
X974Y589D01*
X1531Y589D02*
X1537Y589D01*
X1572Y589D02*
X1577Y589D01*
X35Y588D02*
X76Y588D01*
X35Y587D02*
X40Y587D01*
X35Y586D02*
X40Y586D01*
X35Y585D02*
X40Y585D01*
X35Y584D02*
X40Y584D01*
X35Y583D02*
X40Y583D01*
X35Y582D02*
X52Y582D01*
X35Y581D02*
X53Y581D01*
X35Y580D02*
X53Y580D01*
X35Y579D02*
X53Y579D01*
X36Y578D02*
X53Y578D01*
X326Y573D02*
X352Y573D01*
X380Y573D02*
X381Y573D01*
X326Y572D02*
X354Y572D01*
X378Y572D02*
X383Y572D01*
X326Y571D02*
X356Y571D01*
X377Y571D02*
X383Y571D01*
X975Y571D02*
X982Y571D01*
X1576Y571D02*
X1581Y571D01*
X326Y570D02*
X356Y570D01*
X377Y570D02*
X384Y570D01*
X974Y570D02*
X983Y570D01*
X1575Y570D02*
X1583Y570D01*
X326Y569D02*
X357Y569D01*
X377Y569D02*
X384Y569D01*
X973Y569D02*
X983Y569D01*
X1574Y569D02*
X1583Y569D01*
X326Y568D02*
X358Y568D01*
X377Y568D02*
X384Y568D01*
X973Y568D02*
X983Y568D01*
X1574Y568D02*
X1584Y568D01*
X326Y567D02*
X358Y567D01*
X377Y567D02*
X384Y567D01*
X973Y567D02*
X983Y567D01*
X1574Y567D02*
X1584Y567D01*
X326Y566D02*
X358Y566D01*
X377Y566D02*
X384Y566D01*
X974Y566D02*
X983Y566D01*
X1574Y566D02*
X1584Y566D01*
X326Y565D02*
X332Y565D01*
X351Y565D02*
X358Y565D01*
X377Y565D02*
X384Y565D01*
X975Y565D02*
X983Y565D01*
X1575Y565D02*
X1584Y565D01*
X326Y564D02*
X332Y564D01*
X351Y564D02*
X358Y564D01*
X377Y564D02*
X384Y564D01*
X976Y564D02*
X983Y564D01*
X1576Y564D02*
X1584Y564D01*
X326Y563D02*
X332Y563D01*
X351Y563D02*
X358Y563D01*
X377Y563D02*
X384Y563D01*
X976Y563D02*
X983Y563D01*
X1577Y563D02*
X1584Y563D01*
X326Y562D02*
X332Y562D01*
X351Y562D02*
X358Y562D01*
X377Y562D02*
X384Y562D01*
X976Y562D02*
X983Y562D01*
X1577Y562D02*
X1584Y562D01*
X326Y561D02*
X332Y561D01*
X351Y561D02*
X358Y561D01*
X377Y561D02*
X384Y561D01*
X976Y561D02*
X983Y561D01*
X1577Y561D02*
X1584Y561D01*
X326Y560D02*
X332Y560D01*
X351Y560D02*
X358Y560D01*
X377Y560D02*
X384Y560D01*
X976Y560D02*
X983Y560D01*
X1577Y560D02*
X1584Y560D01*
X326Y559D02*
X332Y559D01*
X351Y559D02*
X358Y559D01*
X377Y559D02*
X384Y559D01*
X976Y559D02*
X983Y559D01*
X1577Y559D02*
X1584Y559D01*
X326Y558D02*
X332Y558D01*
X351Y558D02*
X358Y558D01*
X377Y558D02*
X384Y558D01*
X976Y558D02*
X983Y558D01*
X1577Y558D02*
X1584Y558D01*
X326Y557D02*
X332Y557D01*
X351Y557D02*
X358Y557D01*
X377Y557D02*
X384Y557D01*
X976Y557D02*
X983Y557D01*
X1577Y557D02*
X1584Y557D01*
X326Y556D02*
X332Y556D01*
X351Y556D02*
X358Y556D01*
X377Y556D02*
X384Y556D01*
X926Y556D02*
X950Y556D01*
X976Y556D02*
X983Y556D01*
X1528Y556D02*
X1549Y556D01*
X1577Y556D02*
X1584Y556D01*
X326Y555D02*
X332Y555D01*
X351Y555D02*
X358Y555D01*
X377Y555D02*
X384Y555D01*
X926Y555D02*
X951Y555D01*
X976Y555D02*
X983Y555D01*
X1527Y555D02*
X1551Y555D01*
X1577Y555D02*
X1584Y555D01*
X326Y554D02*
X332Y554D01*
X351Y554D02*
X358Y554D01*
X377Y554D02*
X384Y554D01*
X925Y554D02*
X951Y554D01*
X976Y554D02*
X983Y554D01*
X1526Y554D02*
X1552Y554D01*
X1577Y554D02*
X1584Y554D01*
X326Y553D02*
X332Y553D01*
X351Y553D02*
X358Y553D01*
X377Y553D02*
X384Y553D01*
X925Y553D02*
X952Y553D01*
X976Y553D02*
X983Y553D01*
X1526Y553D02*
X1552Y553D01*
X1577Y553D02*
X1584Y553D01*
X326Y552D02*
X332Y552D01*
X351Y552D02*
X358Y552D01*
X377Y552D02*
X384Y552D01*
X925Y552D02*
X953Y552D01*
X976Y552D02*
X983Y552D01*
X1526Y552D02*
X1553Y552D01*
X1577Y552D02*
X1584Y552D01*
X326Y551D02*
X332Y551D01*
X351Y551D02*
X358Y551D01*
X377Y551D02*
X384Y551D01*
X926Y551D02*
X954Y551D01*
X976Y551D02*
X983Y551D01*
X1526Y551D02*
X1554Y551D01*
X1577Y551D02*
X1584Y551D01*
X326Y550D02*
X332Y550D01*
X351Y550D02*
X358Y550D01*
X377Y550D02*
X384Y550D01*
X927Y550D02*
X955Y550D01*
X976Y550D02*
X983Y550D01*
X1527Y550D02*
X1555Y550D01*
X1577Y550D02*
X1584Y550D01*
X326Y549D02*
X332Y549D01*
X351Y549D02*
X358Y549D01*
X377Y549D02*
X384Y549D01*
X947Y549D02*
X956Y549D01*
X976Y549D02*
X983Y549D01*
X1528Y549D02*
X1556Y549D01*
X1577Y549D02*
X1584Y549D01*
X326Y548D02*
X332Y548D01*
X351Y548D02*
X358Y548D01*
X377Y548D02*
X384Y548D01*
X948Y548D02*
X957Y548D01*
X976Y548D02*
X983Y548D01*
X1548Y548D02*
X1557Y548D01*
X1577Y548D02*
X1584Y548D01*
X326Y547D02*
X332Y547D01*
X351Y547D02*
X358Y547D01*
X377Y547D02*
X384Y547D01*
X948Y547D02*
X957Y547D01*
X976Y547D02*
X983Y547D01*
X1548Y547D02*
X1557Y547D01*
X1577Y547D02*
X1584Y547D01*
X326Y546D02*
X332Y546D01*
X351Y546D02*
X358Y546D01*
X377Y546D02*
X384Y546D01*
X949Y546D02*
X958Y546D01*
X976Y546D02*
X983Y546D01*
X1549Y546D02*
X1558Y546D01*
X1577Y546D02*
X1584Y546D01*
X326Y545D02*
X332Y545D01*
X351Y545D02*
X358Y545D01*
X377Y545D02*
X384Y545D01*
X950Y545D02*
X959Y545D01*
X976Y545D02*
X983Y545D01*
X1550Y545D02*
X1559Y545D01*
X1577Y545D02*
X1584Y545D01*
X326Y544D02*
X332Y544D01*
X351Y544D02*
X358Y544D01*
X377Y544D02*
X384Y544D01*
X951Y544D02*
X960Y544D01*
X976Y544D02*
X983Y544D01*
X1551Y544D02*
X1560Y544D01*
X1577Y544D02*
X1584Y544D01*
X326Y543D02*
X332Y543D01*
X351Y543D02*
X384Y543D01*
X952Y543D02*
X961Y543D01*
X976Y543D02*
X983Y543D01*
X1552Y543D02*
X1561Y543D01*
X1577Y543D02*
X1584Y543D01*
X326Y542D02*
X332Y542D01*
X351Y542D02*
X384Y542D01*
X953Y542D02*
X962Y542D01*
X976Y542D02*
X983Y542D01*
X1553Y542D02*
X1562Y542D01*
X1577Y542D02*
X1584Y542D01*
X326Y541D02*
X332Y541D01*
X352Y541D02*
X383Y541D01*
X954Y541D02*
X983Y541D01*
X1554Y541D02*
X1584Y541D01*
X326Y540D02*
X332Y540D01*
X352Y540D02*
X383Y540D01*
X954Y540D02*
X983Y540D01*
X1554Y540D02*
X1584Y540D01*
X326Y539D02*
X332Y539D01*
X353Y539D02*
X382Y539D01*
X955Y539D02*
X983Y539D01*
X1555Y539D02*
X1584Y539D01*
X326Y538D02*
X332Y538D01*
X353Y538D02*
X382Y538D01*
X956Y538D02*
X983Y538D01*
X1556Y538D02*
X1584Y538D01*
X326Y537D02*
X331Y537D01*
X354Y537D02*
X381Y537D01*
X957Y537D02*
X983Y537D01*
X1557Y537D02*
X1584Y537D01*
X328Y536D02*
X330Y536D01*
X356Y536D02*
X379Y536D01*
X958Y536D02*
X983Y536D01*
X1558Y536D02*
X1584Y536D01*
X959Y535D02*
X983Y535D01*
X1559Y535D02*
X1584Y535D01*
X1560Y534D02*
X1584Y534D01*
X52Y525D02*
X57Y525D01*
X52Y524D02*
X58Y524D01*
X51Y523D02*
X58Y523D01*
X51Y522D02*
X58Y522D01*
X51Y521D02*
X58Y521D01*
X51Y520D02*
X58Y520D01*
X51Y519D02*
X58Y519D01*
X51Y518D02*
X58Y518D01*
X51Y517D02*
X58Y517D01*
X960Y517D02*
X981Y517D01*
X51Y516D02*
X58Y516D01*
X345Y516D02*
X382Y516D01*
X958Y516D02*
X982Y516D01*
X1560Y516D02*
X1582Y516D01*
X51Y515D02*
X58Y515D01*
X345Y515D02*
X383Y515D01*
X958Y515D02*
X983Y515D01*
X1559Y515D02*
X1583Y515D01*
X51Y514D02*
X58Y514D01*
X345Y514D02*
X383Y514D01*
X957Y514D02*
X983Y514D01*
X1558Y514D02*
X1584Y514D01*
X51Y513D02*
X58Y513D01*
X345Y513D02*
X384Y513D01*
X957Y513D02*
X983Y513D01*
X1558Y513D02*
X1584Y513D01*
X51Y512D02*
X58Y512D01*
X345Y512D02*
X384Y512D01*
X957Y512D02*
X983Y512D01*
X1558Y512D02*
X1584Y512D01*
X51Y511D02*
X58Y511D01*
X345Y511D02*
X383Y511D01*
X957Y511D02*
X983Y511D01*
X1558Y511D02*
X1584Y511D01*
X51Y510D02*
X58Y510D01*
X345Y510D02*
X382Y510D01*
X957Y510D02*
X983Y510D01*
X1558Y510D02*
X1584Y510D01*
X51Y509D02*
X58Y509D01*
X345Y509D02*
X380Y509D01*
X957Y509D02*
X964Y509D01*
X976Y509D02*
X983Y509D01*
X1558Y509D02*
X1584Y509D01*
X51Y508D02*
X58Y508D01*
X345Y508D02*
X352Y508D01*
X957Y508D02*
X964Y508D01*
X976Y508D02*
X983Y508D01*
X1558Y508D02*
X1564Y508D01*
X1577Y508D02*
X1584Y508D01*
X51Y507D02*
X58Y507D01*
X345Y507D02*
X352Y507D01*
X957Y507D02*
X964Y507D01*
X976Y507D02*
X983Y507D01*
X1558Y507D02*
X1564Y507D01*
X1577Y507D02*
X1584Y507D01*
X51Y506D02*
X58Y506D01*
X345Y506D02*
X352Y506D01*
X957Y506D02*
X964Y506D01*
X976Y506D02*
X983Y506D01*
X1558Y506D02*
X1564Y506D01*
X1577Y506D02*
X1584Y506D01*
X51Y505D02*
X58Y505D01*
X345Y505D02*
X352Y505D01*
X957Y505D02*
X964Y505D01*
X976Y505D02*
X983Y505D01*
X1558Y505D02*
X1564Y505D01*
X1577Y505D02*
X1584Y505D01*
X51Y504D02*
X58Y504D01*
X345Y504D02*
X352Y504D01*
X957Y504D02*
X964Y504D01*
X976Y504D02*
X983Y504D01*
X1558Y504D02*
X1564Y504D01*
X1577Y504D02*
X1584Y504D01*
X51Y503D02*
X58Y503D01*
X345Y503D02*
X352Y503D01*
X957Y503D02*
X964Y503D01*
X976Y503D02*
X983Y503D01*
X1558Y503D02*
X1564Y503D01*
X1577Y503D02*
X1584Y503D01*
X51Y502D02*
X58Y502D01*
X345Y502D02*
X352Y502D01*
X957Y502D02*
X964Y502D01*
X976Y502D02*
X983Y502D01*
X1558Y502D02*
X1564Y502D01*
X1577Y502D02*
X1584Y502D01*
X51Y501D02*
X58Y501D01*
X345Y501D02*
X352Y501D01*
X957Y501D02*
X964Y501D01*
X976Y501D02*
X983Y501D01*
X1558Y501D02*
X1564Y501D01*
X1577Y501D02*
X1584Y501D01*
X51Y500D02*
X58Y500D01*
X345Y500D02*
X352Y500D01*
X957Y500D02*
X964Y500D01*
X976Y500D02*
X983Y500D01*
X1558Y500D02*
X1564Y500D01*
X1577Y500D02*
X1584Y500D01*
X52Y499D02*
X57Y499D01*
X345Y499D02*
X352Y499D01*
X957Y499D02*
X964Y499D01*
X976Y499D02*
X983Y499D01*
X1558Y499D02*
X1564Y499D01*
X1577Y499D02*
X1584Y499D01*
X345Y498D02*
X352Y498D01*
X957Y498D02*
X964Y498D01*
X976Y498D02*
X983Y498D01*
X1558Y498D02*
X1564Y498D01*
X1577Y498D02*
X1584Y498D01*
X345Y497D02*
X352Y497D01*
X957Y497D02*
X964Y497D01*
X976Y497D02*
X983Y497D01*
X1558Y497D02*
X1564Y497D01*
X1577Y497D02*
X1584Y497D01*
X345Y496D02*
X352Y496D01*
X957Y496D02*
X964Y496D01*
X976Y496D02*
X983Y496D01*
X1558Y496D02*
X1564Y496D01*
X1577Y496D02*
X1584Y496D01*
X345Y495D02*
X352Y495D01*
X957Y495D02*
X964Y495D01*
X976Y495D02*
X983Y495D01*
X1558Y495D02*
X1564Y495D01*
X1577Y495D02*
X1584Y495D01*
X329Y494D02*
X374Y494D01*
X957Y494D02*
X964Y494D01*
X976Y494D02*
X983Y494D01*
X1558Y494D02*
X1564Y494D01*
X1577Y494D02*
X1584Y494D01*
X327Y493D02*
X376Y493D01*
X957Y493D02*
X964Y493D01*
X976Y493D02*
X983Y493D01*
X1558Y493D02*
X1564Y493D01*
X1577Y493D02*
X1584Y493D01*
X326Y492D02*
X377Y492D01*
X957Y492D02*
X964Y492D01*
X976Y492D02*
X983Y492D01*
X1558Y492D02*
X1564Y492D01*
X1577Y492D02*
X1584Y492D01*
X326Y491D02*
X377Y491D01*
X957Y491D02*
X964Y491D01*
X976Y491D02*
X983Y491D01*
X1558Y491D02*
X1564Y491D01*
X1577Y491D02*
X1584Y491D01*
X326Y490D02*
X377Y490D01*
X926Y490D02*
X930Y490D01*
X957Y490D02*
X964Y490D01*
X976Y490D02*
X983Y490D01*
X1528Y490D02*
X1530Y490D01*
X1558Y490D02*
X1564Y490D01*
X1577Y490D02*
X1584Y490D01*
X326Y489D02*
X377Y489D01*
X926Y489D02*
X931Y489D01*
X957Y489D02*
X964Y489D01*
X976Y489D02*
X983Y489D01*
X1527Y489D02*
X1531Y489D01*
X1558Y489D02*
X1564Y489D01*
X1577Y489D02*
X1584Y489D01*
X326Y488D02*
X376Y488D01*
X925Y488D02*
X932Y488D01*
X957Y488D02*
X964Y488D01*
X976Y488D02*
X983Y488D01*
X1526Y488D02*
X1532Y488D01*
X1558Y488D02*
X1564Y488D01*
X1577Y488D02*
X1584Y488D01*
X327Y487D02*
X375Y487D01*
X925Y487D02*
X983Y487D01*
X1526Y487D02*
X1532Y487D01*
X1558Y487D02*
X1564Y487D01*
X1577Y487D02*
X1584Y487D01*
X42Y486D02*
X42Y486D01*
X69Y486D02*
X70Y486D01*
X345Y486D02*
X352Y486D01*
X925Y486D02*
X983Y486D01*
X1526Y486D02*
X1584Y486D01*
X40Y485D02*
X44Y485D01*
X68Y485D02*
X71Y485D01*
X345Y485D02*
X351Y485D01*
X925Y485D02*
X983Y485D01*
X1526Y485D02*
X1584Y485D01*
X40Y484D02*
X44Y484D01*
X67Y484D02*
X72Y484D01*
X346Y484D02*
X351Y484D01*
X925Y484D02*
X983Y484D01*
X1526Y484D02*
X1584Y484D01*
X40Y483D02*
X45Y483D01*
X67Y483D02*
X72Y483D01*
X347Y483D02*
X349Y483D01*
X925Y483D02*
X983Y483D01*
X1526Y483D02*
X1584Y483D01*
X40Y482D02*
X45Y482D01*
X66Y482D02*
X72Y482D01*
X925Y482D02*
X983Y482D01*
X1526Y482D02*
X1584Y482D01*
X41Y481D02*
X46Y481D01*
X66Y481D02*
X71Y481D01*
X926Y481D02*
X982Y481D01*
X1526Y481D02*
X1583Y481D01*
X41Y480D02*
X47Y480D01*
X65Y480D02*
X70Y480D01*
X927Y480D02*
X981Y480D01*
X1527Y480D02*
X1583Y480D01*
X42Y479D02*
X47Y479D01*
X64Y479D02*
X70Y479D01*
X1528Y479D02*
X1581Y479D01*
X42Y478D02*
X48Y478D01*
X64Y478D02*
X69Y478D01*
X43Y477D02*
X48Y477D01*
X63Y477D02*
X69Y477D01*
X44Y476D02*
X49Y476D01*
X63Y476D02*
X68Y476D01*
X44Y475D02*
X50Y475D01*
X62Y475D02*
X67Y475D01*
X45Y474D02*
X50Y474D01*
X61Y474D02*
X67Y474D01*
X45Y473D02*
X51Y473D01*
X61Y473D02*
X66Y473D01*
X46Y472D02*
X51Y472D01*
X60Y472D02*
X66Y472D01*
X47Y471D02*
X52Y471D01*
X60Y471D02*
X65Y471D01*
X47Y470D02*
X52Y470D01*
X59Y470D02*
X65Y470D01*
X48Y469D02*
X53Y469D01*
X59Y469D02*
X64Y469D01*
X48Y468D02*
X54Y468D01*
X58Y468D02*
X63Y468D01*
X49Y467D02*
X54Y467D01*
X57Y467D02*
X63Y467D01*
X49Y466D02*
X55Y466D01*
X57Y466D02*
X62Y466D01*
X50Y465D02*
X62Y465D01*
X51Y464D02*
X61Y464D01*
X51Y463D02*
X60Y463D01*
X327Y463D02*
X331Y463D01*
X379Y463D02*
X382Y463D01*
X52Y462D02*
X60Y462D01*
X326Y462D02*
X332Y462D01*
X378Y462D02*
X383Y462D01*
X930Y462D02*
X933Y462D01*
X52Y461D02*
X59Y461D01*
X326Y461D02*
X332Y461D01*
X377Y461D02*
X383Y461D01*
X929Y461D02*
X934Y461D01*
X1530Y461D02*
X1534Y461D01*
X53Y460D02*
X59Y460D01*
X326Y460D02*
X332Y460D01*
X377Y460D02*
X384Y460D01*
X928Y460D02*
X935Y460D01*
X1529Y460D02*
X1535Y460D01*
X55Y459D02*
X57Y459D01*
X326Y459D02*
X332Y459D01*
X377Y459D02*
X384Y459D01*
X928Y459D02*
X935Y459D01*
X1529Y459D02*
X1535Y459D01*
X326Y458D02*
X332Y458D01*
X377Y458D02*
X384Y458D01*
X928Y458D02*
X935Y458D01*
X1528Y458D02*
X1536Y458D01*
X326Y457D02*
X332Y457D01*
X377Y457D02*
X384Y457D01*
X927Y457D02*
X935Y457D01*
X1528Y457D02*
X1535Y457D01*
X326Y456D02*
X332Y456D01*
X377Y456D02*
X384Y456D01*
X927Y456D02*
X934Y456D01*
X1528Y456D02*
X1535Y456D01*
X326Y455D02*
X332Y455D01*
X377Y455D02*
X384Y455D01*
X926Y455D02*
X934Y455D01*
X951Y455D02*
X983Y455D01*
X1527Y455D02*
X1535Y455D01*
X326Y454D02*
X332Y454D01*
X377Y454D02*
X384Y454D01*
X926Y454D02*
X933Y454D01*
X951Y454D02*
X983Y454D01*
X1527Y454D02*
X1534Y454D01*
X1552Y454D02*
X1584Y454D01*
X326Y453D02*
X332Y453D01*
X377Y453D02*
X384Y453D01*
X926Y453D02*
X933Y453D01*
X951Y453D02*
X983Y453D01*
X1526Y453D02*
X1534Y453D01*
X1551Y453D02*
X1584Y453D01*
X326Y452D02*
X332Y452D01*
X377Y452D02*
X384Y452D01*
X925Y452D02*
X932Y452D01*
X951Y452D02*
X983Y452D01*
X1526Y452D02*
X1533Y452D01*
X1551Y452D02*
X1584Y452D01*
X326Y451D02*
X332Y451D01*
X377Y451D02*
X384Y451D01*
X925Y451D02*
X932Y451D01*
X951Y451D02*
X983Y451D01*
X1526Y451D02*
X1533Y451D01*
X1551Y451D02*
X1584Y451D01*
X326Y450D02*
X332Y450D01*
X377Y450D02*
X384Y450D01*
X925Y450D02*
X932Y450D01*
X951Y450D02*
X983Y450D01*
X1526Y450D02*
X1533Y450D01*
X1551Y450D02*
X1584Y450D01*
X326Y449D02*
X332Y449D01*
X377Y449D02*
X384Y449D01*
X925Y449D02*
X932Y449D01*
X951Y449D02*
X983Y449D01*
X1526Y449D02*
X1532Y449D01*
X1551Y449D02*
X1584Y449D01*
X326Y448D02*
X384Y448D01*
X925Y448D02*
X932Y448D01*
X951Y448D02*
X983Y448D01*
X1526Y448D02*
X1532Y448D01*
X1551Y448D02*
X1584Y448D01*
X326Y447D02*
X384Y447D01*
X925Y447D02*
X932Y447D01*
X951Y447D02*
X958Y447D01*
X976Y447D02*
X983Y447D01*
X1526Y447D02*
X1532Y447D01*
X1551Y447D02*
X1584Y447D01*
X326Y446D02*
X384Y446D01*
X925Y446D02*
X932Y446D01*
X951Y446D02*
X957Y446D01*
X976Y446D02*
X983Y446D01*
X1526Y446D02*
X1532Y446D01*
X1551Y446D02*
X1558Y446D01*
X1577Y446D02*
X1584Y446D01*
X326Y445D02*
X384Y445D01*
X925Y445D02*
X932Y445D01*
X951Y445D02*
X957Y445D01*
X976Y445D02*
X983Y445D01*
X1526Y445D02*
X1532Y445D01*
X1551Y445D02*
X1558Y445D01*
X1577Y445D02*
X1584Y445D01*
X326Y444D02*
X384Y444D01*
X925Y444D02*
X932Y444D01*
X951Y444D02*
X957Y444D01*
X976Y444D02*
X983Y444D01*
X1526Y444D02*
X1532Y444D01*
X1551Y444D02*
X1558Y444D01*
X1577Y444D02*
X1584Y444D01*
X326Y443D02*
X384Y443D01*
X925Y443D02*
X932Y443D01*
X951Y443D02*
X957Y443D01*
X976Y443D02*
X983Y443D01*
X1526Y443D02*
X1532Y443D01*
X1551Y443D02*
X1558Y443D01*
X1577Y443D02*
X1584Y443D01*
X326Y442D02*
X384Y442D01*
X925Y442D02*
X932Y442D01*
X951Y442D02*
X957Y442D01*
X976Y442D02*
X983Y442D01*
X1526Y442D02*
X1532Y442D01*
X1551Y442D02*
X1558Y442D01*
X1577Y442D02*
X1584Y442D01*
X326Y441D02*
X333Y441D01*
X925Y441D02*
X932Y441D01*
X951Y441D02*
X957Y441D01*
X976Y441D02*
X983Y441D01*
X1526Y441D02*
X1532Y441D01*
X1551Y441D02*
X1558Y441D01*
X1577Y441D02*
X1584Y441D01*
X326Y440D02*
X332Y440D01*
X925Y440D02*
X932Y440D01*
X951Y440D02*
X957Y440D01*
X976Y440D02*
X983Y440D01*
X1526Y440D02*
X1532Y440D01*
X1551Y440D02*
X1558Y440D01*
X1577Y440D02*
X1584Y440D01*
X326Y439D02*
X332Y439D01*
X925Y439D02*
X932Y439D01*
X951Y439D02*
X957Y439D01*
X976Y439D02*
X983Y439D01*
X1526Y439D02*
X1532Y439D01*
X1551Y439D02*
X1558Y439D01*
X1577Y439D02*
X1584Y439D01*
X326Y438D02*
X332Y438D01*
X925Y438D02*
X932Y438D01*
X951Y438D02*
X957Y438D01*
X976Y438D02*
X983Y438D01*
X1526Y438D02*
X1532Y438D01*
X1551Y438D02*
X1558Y438D01*
X1577Y438D02*
X1584Y438D01*
X326Y437D02*
X332Y437D01*
X925Y437D02*
X932Y437D01*
X951Y437D02*
X957Y437D01*
X976Y437D02*
X983Y437D01*
X1526Y437D02*
X1532Y437D01*
X1551Y437D02*
X1558Y437D01*
X1577Y437D02*
X1584Y437D01*
X326Y436D02*
X332Y436D01*
X925Y436D02*
X932Y436D01*
X951Y436D02*
X957Y436D01*
X976Y436D02*
X983Y436D01*
X1526Y436D02*
X1532Y436D01*
X1551Y436D02*
X1558Y436D01*
X1577Y436D02*
X1584Y436D01*
X326Y435D02*
X332Y435D01*
X925Y435D02*
X932Y435D01*
X951Y435D02*
X957Y435D01*
X976Y435D02*
X983Y435D01*
X1526Y435D02*
X1532Y435D01*
X1551Y435D02*
X1558Y435D01*
X1577Y435D02*
X1584Y435D01*
X326Y434D02*
X332Y434D01*
X925Y434D02*
X932Y434D01*
X951Y434D02*
X957Y434D01*
X976Y434D02*
X983Y434D01*
X1526Y434D02*
X1532Y434D01*
X1551Y434D02*
X1558Y434D01*
X1577Y434D02*
X1584Y434D01*
X326Y433D02*
X350Y433D01*
X925Y433D02*
X932Y433D01*
X951Y433D02*
X957Y433D01*
X976Y433D02*
X983Y433D01*
X1526Y433D02*
X1532Y433D01*
X1551Y433D02*
X1558Y433D01*
X1577Y433D02*
X1584Y433D01*
X326Y432D02*
X351Y432D01*
X925Y432D02*
X957Y432D01*
X976Y432D02*
X983Y432D01*
X1526Y432D02*
X1533Y432D01*
X1551Y432D02*
X1558Y432D01*
X1577Y432D02*
X1584Y432D01*
X326Y431D02*
X351Y431D01*
X925Y431D02*
X957Y431D01*
X976Y431D02*
X983Y431D01*
X1526Y431D02*
X1558Y431D01*
X1577Y431D02*
X1584Y431D01*
X326Y430D02*
X352Y430D01*
X926Y430D02*
X957Y430D01*
X976Y430D02*
X983Y430D01*
X1526Y430D02*
X1558Y430D01*
X1577Y430D02*
X1584Y430D01*
X326Y429D02*
X351Y429D01*
X926Y429D02*
X957Y429D01*
X976Y429D02*
X983Y429D01*
X1526Y429D02*
X1558Y429D01*
X1577Y429D02*
X1584Y429D01*
X326Y428D02*
X351Y428D01*
X927Y428D02*
X956Y428D01*
X977Y428D02*
X983Y428D01*
X1527Y428D02*
X1557Y428D01*
X1577Y428D02*
X1584Y428D01*
X327Y427D02*
X350Y427D01*
X928Y427D02*
X955Y427D01*
X977Y427D02*
X983Y427D01*
X1527Y427D02*
X1556Y427D01*
X1577Y427D02*
X1584Y427D01*
X929Y426D02*
X954Y426D01*
X978Y426D02*
X982Y426D01*
X1528Y426D02*
X1555Y426D01*
X1578Y426D02*
X1583Y426D01*
X931Y425D02*
X951Y425D01*
X979Y425D02*
X980Y425D01*
X1530Y425D02*
X1554Y425D01*
X1579Y425D02*
X1582Y425D01*
X39Y407D02*
X54Y407D01*
X37Y406D02*
X56Y406D01*
X36Y405D02*
X57Y405D01*
X36Y404D02*
X58Y404D01*
X35Y403D02*
X58Y403D01*
X35Y402D02*
X58Y402D01*
X35Y401D02*
X40Y401D01*
X54Y401D02*
X76Y401D01*
X35Y400D02*
X40Y400D01*
X54Y400D02*
X76Y400D01*
X35Y399D02*
X40Y399D01*
X54Y399D02*
X77Y399D01*
X35Y398D02*
X40Y398D01*
X54Y398D02*
X77Y398D01*
X35Y397D02*
X40Y397D01*
X54Y397D02*
X77Y397D01*
X35Y396D02*
X40Y396D01*
X54Y396D02*
X58Y396D01*
X72Y396D02*
X77Y396D01*
X35Y395D02*
X40Y395D01*
X54Y395D02*
X58Y395D01*
X72Y395D02*
X77Y395D01*
X35Y394D02*
X40Y394D01*
X54Y394D02*
X58Y394D01*
X72Y394D02*
X77Y394D01*
X35Y393D02*
X40Y393D01*
X54Y393D02*
X58Y393D01*
X72Y393D02*
X77Y393D01*
X35Y392D02*
X40Y392D01*
X54Y392D02*
X58Y392D01*
X72Y392D02*
X77Y392D01*
X35Y391D02*
X40Y391D01*
X54Y391D02*
X77Y391D01*
X35Y390D02*
X40Y390D01*
X54Y390D02*
X77Y390D01*
X35Y389D02*
X40Y389D01*
X54Y389D02*
X77Y389D01*
X35Y388D02*
X40Y388D01*
X54Y388D02*
X77Y388D01*
X35Y387D02*
X40Y387D01*
X54Y387D02*
X76Y387D01*
X35Y386D02*
X40Y386D01*
X53Y386D02*
X75Y386D01*
X35Y385D02*
X58Y385D01*
X35Y384D02*
X58Y384D01*
X36Y383D02*
X57Y383D01*
X37Y382D02*
X57Y382D01*
X38Y381D02*
X55Y381D01*
X38Y367D02*
X56Y367D01*
X36Y366D02*
X57Y366D01*
X36Y365D02*
X57Y365D01*
X35Y364D02*
X58Y364D01*
X35Y363D02*
X58Y363D01*
X35Y362D02*
X40Y362D01*
X54Y362D02*
X75Y362D01*
X35Y361D02*
X40Y361D01*
X54Y361D02*
X76Y361D01*
X35Y360D02*
X40Y360D01*
X54Y360D02*
X77Y360D01*
X35Y359D02*
X40Y359D01*
X54Y359D02*
X77Y359D01*
X35Y358D02*
X40Y358D01*
X54Y358D02*
X77Y358D01*
X35Y357D02*
X40Y357D01*
X54Y357D02*
X77Y357D01*
X35Y356D02*
X40Y356D01*
X54Y356D02*
X58Y356D01*
X72Y356D02*
X77Y356D01*
X35Y355D02*
X40Y355D01*
X54Y355D02*
X58Y355D01*
X72Y355D02*
X77Y355D01*
X35Y354D02*
X40Y354D01*
X54Y354D02*
X58Y354D01*
X72Y354D02*
X77Y354D01*
X35Y353D02*
X40Y353D01*
X54Y353D02*
X58Y353D01*
X72Y353D02*
X77Y353D01*
X35Y352D02*
X40Y352D01*
X54Y352D02*
X58Y352D01*
X72Y352D02*
X77Y352D01*
X35Y351D02*
X40Y351D01*
X54Y351D02*
X77Y351D01*
X35Y350D02*
X40Y350D01*
X54Y350D02*
X77Y350D01*
X35Y349D02*
X40Y349D01*
X54Y349D02*
X77Y349D01*
X35Y348D02*
X40Y348D01*
X54Y348D02*
X76Y348D01*
X35Y347D02*
X40Y347D01*
X54Y347D02*
X76Y347D01*
X35Y346D02*
X58Y346D01*
X35Y345D02*
X58Y345D01*
X36Y344D02*
X58Y344D01*
X36Y343D02*
X57Y343D01*
X37Y342D02*
X56Y342D01*
X39Y341D02*
X54Y341D01*
X35Y328D02*
X55Y328D01*
X73Y328D02*
X75Y328D01*
X35Y327D02*
X56Y327D01*
X72Y327D02*
X76Y327D01*
X35Y326D02*
X57Y326D01*
X72Y326D02*
X77Y326D01*
X35Y325D02*
X58Y325D01*
X72Y325D02*
X77Y325D01*
X35Y324D02*
X58Y324D01*
X72Y324D02*
X77Y324D01*
X35Y323D02*
X58Y323D01*
X72Y323D02*
X77Y323D01*
X35Y322D02*
X40Y322D01*
X54Y322D02*
X58Y322D01*
X72Y322D02*
X77Y322D01*
X35Y321D02*
X40Y321D01*
X54Y321D02*
X58Y321D01*
X72Y321D02*
X77Y321D01*
X35Y320D02*
X40Y320D01*
X54Y320D02*
X58Y320D01*
X72Y320D02*
X77Y320D01*
X35Y319D02*
X40Y319D01*
X54Y319D02*
X58Y319D01*
X72Y319D02*
X77Y319D01*
X35Y318D02*
X40Y318D01*
X54Y318D02*
X58Y318D01*
X72Y318D02*
X77Y318D01*
X35Y317D02*
X40Y317D01*
X54Y317D02*
X58Y317D01*
X72Y317D02*
X77Y317D01*
X35Y316D02*
X40Y316D01*
X54Y316D02*
X58Y316D01*
X72Y316D02*
X77Y316D01*
X35Y315D02*
X40Y315D01*
X54Y315D02*
X58Y315D01*
X72Y315D02*
X77Y315D01*
X35Y314D02*
X40Y314D01*
X54Y314D02*
X58Y314D01*
X72Y314D02*
X77Y314D01*
X35Y313D02*
X40Y313D01*
X54Y313D02*
X58Y313D01*
X72Y313D02*
X77Y313D01*
X35Y312D02*
X40Y312D01*
X54Y312D02*
X58Y312D01*
X72Y312D02*
X77Y312D01*
X35Y311D02*
X40Y311D01*
X54Y311D02*
X58Y311D01*
X72Y311D02*
X77Y311D01*
X35Y310D02*
X40Y310D01*
X54Y310D02*
X58Y310D01*
X72Y310D02*
X77Y310D01*
X35Y309D02*
X40Y309D01*
X54Y309D02*
X58Y309D01*
X72Y309D02*
X77Y309D01*
X35Y308D02*
X40Y308D01*
X54Y308D02*
X58Y308D01*
X72Y308D02*
X77Y308D01*
X35Y307D02*
X40Y307D01*
X54Y307D02*
X58Y307D01*
X72Y307D02*
X77Y307D01*
X35Y306D02*
X40Y306D01*
X54Y306D02*
X76Y306D01*
X35Y305D02*
X40Y305D01*
X54Y305D02*
X76Y305D01*
X35Y304D02*
X40Y304D01*
X54Y304D02*
X76Y304D01*
X35Y303D02*
X39Y303D01*
X55Y303D02*
X75Y303D01*
X36Y302D02*
X39Y302D01*
X57Y302D02*
X74Y302D01*
X41Y289D02*
X42Y289D01*
X70Y289D02*
X72Y289D01*
X39Y288D02*
X44Y288D01*
X68Y288D02*
X74Y288D01*
X37Y287D02*
X44Y287D01*
X66Y287D02*
X75Y287D01*
X36Y286D02*
X44Y286D01*
X65Y286D02*
X76Y286D01*
X36Y285D02*
X44Y285D01*
X64Y285D02*
X76Y285D01*
X35Y284D02*
X43Y284D01*
X63Y284D02*
X76Y284D01*
X35Y283D02*
X40Y283D01*
X61Y283D02*
X69Y283D01*
X72Y283D02*
X77Y283D01*
X35Y282D02*
X40Y282D01*
X60Y282D02*
X68Y282D01*
X72Y282D02*
X77Y282D01*
X35Y281D02*
X40Y281D01*
X59Y281D02*
X67Y281D01*
X72Y281D02*
X77Y281D01*
X35Y280D02*
X40Y280D01*
X57Y280D02*
X65Y280D01*
X72Y280D02*
X77Y280D01*
X35Y279D02*
X40Y279D01*
X56Y279D02*
X64Y279D01*
X72Y279D02*
X77Y279D01*
X35Y278D02*
X40Y278D01*
X55Y278D02*
X63Y278D01*
X72Y278D02*
X77Y278D01*
X35Y277D02*
X40Y277D01*
X54Y277D02*
X62Y277D01*
X72Y277D02*
X77Y277D01*
X35Y276D02*
X40Y276D01*
X52Y276D02*
X60Y276D01*
X72Y276D02*
X77Y276D01*
X35Y275D02*
X40Y275D01*
X51Y275D02*
X59Y275D01*
X72Y275D02*
X77Y275D01*
X35Y274D02*
X40Y274D01*
X50Y274D02*
X58Y274D01*
X72Y274D02*
X77Y274D01*
X35Y273D02*
X40Y273D01*
X48Y273D02*
X57Y273D01*
X72Y273D02*
X77Y273D01*
X35Y272D02*
X40Y272D01*
X47Y272D02*
X55Y272D01*
X72Y272D02*
X77Y272D01*
X35Y271D02*
X40Y271D01*
X46Y271D02*
X54Y271D01*
X72Y271D02*
X77Y271D01*
X35Y270D02*
X40Y270D01*
X45Y270D02*
X53Y270D01*
X72Y270D02*
X77Y270D01*
X35Y269D02*
X40Y269D01*
X43Y269D02*
X51Y269D01*
X72Y269D02*
X77Y269D01*
X35Y268D02*
X40Y268D01*
X42Y268D02*
X50Y268D01*
X71Y268D02*
X76Y268D01*
X35Y267D02*
X49Y267D01*
X69Y267D02*
X76Y267D01*
X35Y266D02*
X48Y266D01*
X68Y266D02*
X76Y266D01*
X36Y265D02*
X46Y265D01*
X67Y265D02*
X75Y265D01*
X37Y264D02*
X45Y264D01*
X68Y264D02*
X74Y264D01*
X38Y263D02*
X44Y263D01*
X68Y263D02*
X73Y263D01*
X41Y262D02*
X41Y262D01*
X70Y262D02*
X70Y262D01*
X36Y249D02*
X39Y249D01*
X73Y249D02*
X76Y249D01*
X35Y248D02*
X39Y248D01*
X72Y248D02*
X76Y248D01*
X35Y247D02*
X40Y247D01*
X72Y247D02*
X77Y247D01*
X35Y246D02*
X40Y246D01*
X72Y246D02*
X77Y246D01*
X35Y245D02*
X40Y245D01*
X72Y245D02*
X77Y245D01*
X35Y244D02*
X40Y244D01*
X72Y244D02*
X77Y244D01*
X35Y243D02*
X40Y243D01*
X72Y243D02*
X77Y243D01*
X35Y242D02*
X40Y242D01*
X72Y242D02*
X77Y242D01*
X35Y241D02*
X40Y241D01*
X72Y241D02*
X77Y241D01*
X35Y240D02*
X40Y240D01*
X72Y240D02*
X77Y240D01*
X35Y239D02*
X40Y239D01*
X72Y239D02*
X77Y239D01*
X35Y238D02*
X77Y238D01*
X35Y237D02*
X77Y237D01*
X35Y236D02*
X77Y236D01*
X35Y235D02*
X77Y235D01*
X35Y234D02*
X77Y234D01*
X35Y233D02*
X40Y233D01*
X72Y233D02*
X77Y233D01*
X35Y232D02*
X40Y232D01*
X72Y232D02*
X77Y232D01*
X35Y231D02*
X40Y231D01*
X72Y231D02*
X77Y231D01*
X35Y230D02*
X40Y230D01*
X72Y230D02*
X77Y230D01*
X35Y229D02*
X40Y229D01*
X72Y229D02*
X77Y229D01*
X35Y228D02*
X40Y228D01*
X72Y228D02*
X77Y228D01*
X35Y227D02*
X40Y227D01*
X72Y227D02*
X77Y227D01*
X35Y226D02*
X40Y226D01*
X72Y226D02*
X77Y226D01*
X35Y225D02*
X40Y225D01*
X72Y225D02*
X77Y225D01*
X35Y224D02*
X39Y224D01*
X72Y224D02*
X76Y224D01*
X36Y223D02*
X38Y223D01*
X73Y223D02*
X75Y223D01*
X53Y210D02*
X58Y210D01*
X51Y209D02*
X61Y209D01*
X49Y208D02*
X63Y208D01*
X47Y207D02*
X65Y207D01*
X45Y206D02*
X67Y206D01*
X43Y205D02*
X69Y205D01*
X41Y204D02*
X52Y204D01*
X60Y204D02*
X71Y204D01*
X39Y203D02*
X50Y203D01*
X62Y203D02*
X73Y203D01*
X37Y202D02*
X48Y202D01*
X64Y202D02*
X74Y202D01*
X36Y201D02*
X46Y201D01*
X66Y201D02*
X75Y201D01*
X36Y200D02*
X44Y200D01*
X68Y200D02*
X76Y200D01*
X35Y199D02*
X42Y199D01*
X70Y199D02*
X76Y199D01*
X35Y198D02*
X40Y198D01*
X71Y198D02*
X76Y198D01*
X35Y197D02*
X40Y197D01*
X72Y197D02*
X77Y197D01*
X35Y196D02*
X40Y196D01*
X72Y196D02*
X77Y196D01*
X35Y195D02*
X41Y195D01*
X70Y195D02*
X76Y195D01*
X36Y194D02*
X43Y194D01*
X68Y194D02*
X76Y194D01*
X36Y193D02*
X45Y193D01*
X66Y193D02*
X75Y193D01*
X37Y192D02*
X47Y192D01*
X65Y192D02*
X75Y192D01*
X38Y191D02*
X49Y191D01*
X63Y191D02*
X74Y191D01*
X40Y190D02*
X51Y190D01*
X61Y190D02*
X72Y190D01*
X42Y189D02*
X53Y189D01*
X58Y189D02*
X70Y189D01*
X44Y188D02*
X68Y188D01*
X46Y187D02*
X66Y187D01*
X48Y186D02*
X64Y186D01*
X50Y185D02*
X62Y185D01*
X52Y184D02*
X60Y184D01*
X1350Y73D02*
X1366Y73D01*
X1379Y73D02*
X1381Y73D01*
X1395Y73D02*
X1397Y73D01*
X1408Y73D02*
X1425Y73D01*
X1436Y73D02*
X1438Y73D01*
X1465Y73D02*
X1482Y73D01*
X1493Y73D02*
X1508Y73D01*
X1550Y73D02*
X1552Y73D01*
X1585Y73D02*
X1589Y73D01*
X1606Y73D02*
X1622Y73D01*
X1636Y73D02*
X1646Y73D01*
X1749Y73D02*
X1765Y73D01*
X1779Y73D02*
X1794Y73D01*
X1806Y73D02*
X1822Y73D01*
X1835Y73D02*
X1845Y73D01*
X1350Y72D02*
X1367Y72D01*
X1379Y72D02*
X1382Y72D01*
X1395Y72D02*
X1397Y72D01*
X1407Y72D02*
X1426Y72D01*
X1436Y72D02*
X1439Y72D01*
X1464Y72D02*
X1483Y72D01*
X1493Y72D02*
X1509Y72D01*
X1550Y72D02*
X1552Y72D01*
X1584Y72D02*
X1591Y72D01*
X1606Y72D02*
X1623Y72D01*
X1635Y72D02*
X1647Y72D01*
X1749Y72D02*
X1766Y72D01*
X1778Y72D02*
X1795Y72D01*
X1806Y72D02*
X1823Y72D01*
X1834Y72D02*
X1845Y72D01*
X1350Y71D02*
X1368Y71D01*
X1379Y71D02*
X1382Y71D01*
X1394Y71D02*
X1397Y71D01*
X1407Y71D02*
X1426Y71D01*
X1436Y71D02*
X1439Y71D01*
X1464Y71D02*
X1483Y71D01*
X1493Y71D02*
X1510Y71D01*
X1550Y71D02*
X1553Y71D01*
X1583Y71D02*
X1591Y71D01*
X1606Y71D02*
X1624Y71D01*
X1635Y71D02*
X1648Y71D01*
X1749Y71D02*
X1767Y71D01*
X1777Y71D02*
X1796Y71D01*
X1806Y71D02*
X1824Y71D01*
X1834Y71D02*
X1845Y71D01*
X1350Y70D02*
X1369Y70D01*
X1379Y70D02*
X1382Y70D01*
X1394Y70D02*
X1397Y70D01*
X1408Y70D02*
X1425Y70D01*
X1436Y70D02*
X1439Y70D01*
X1465Y70D02*
X1482Y70D01*
X1493Y70D02*
X1511Y70D01*
X1550Y70D02*
X1553Y70D01*
X1583Y70D02*
X1592Y70D01*
X1606Y70D02*
X1625Y70D01*
X1636Y70D02*
X1649Y70D01*
X1750Y70D02*
X1767Y70D01*
X1777Y70D02*
X1796Y70D01*
X1806Y70D02*
X1824Y70D01*
X1835Y70D02*
X1845Y70D01*
X1350Y69D02*
X1353Y69D01*
X1365Y69D02*
X1369Y69D01*
X1379Y69D02*
X1382Y69D01*
X1394Y69D02*
X1397Y69D01*
X1415Y69D02*
X1418Y69D01*
X1436Y69D02*
X1439Y69D01*
X1472Y69D02*
X1475Y69D01*
X1493Y69D02*
X1496Y69D01*
X1508Y69D02*
X1511Y69D01*
X1550Y69D02*
X1553Y69D01*
X1582Y69D02*
X1586Y69D01*
X1589Y69D02*
X1592Y69D01*
X1606Y69D02*
X1609Y69D01*
X1621Y69D02*
X1625Y69D01*
X1639Y69D02*
X1642Y69D01*
X1646Y69D02*
X1649Y69D01*
X1764Y69D02*
X1767Y69D01*
X1777Y69D02*
X1780Y69D01*
X1793Y69D02*
X1796Y69D01*
X1821Y69D02*
X1824Y69D01*
X1842Y69D02*
X1845Y69D01*
X1350Y68D02*
X1353Y68D01*
X1366Y68D02*
X1369Y68D01*
X1379Y68D02*
X1382Y68D01*
X1394Y68D02*
X1397Y68D01*
X1415Y68D02*
X1418Y68D01*
X1436Y68D02*
X1439Y68D01*
X1472Y68D02*
X1475Y68D01*
X1493Y68D02*
X1496Y68D01*
X1508Y68D02*
X1511Y68D01*
X1550Y68D02*
X1553Y68D01*
X1582Y68D02*
X1585Y68D01*
X1589Y68D02*
X1593Y68D01*
X1606Y68D02*
X1609Y68D01*
X1622Y68D02*
X1625Y68D01*
X1639Y68D02*
X1642Y68D01*
X1646Y68D02*
X1650Y68D01*
X1764Y68D02*
X1767Y68D01*
X1777Y68D02*
X1780Y68D01*
X1793Y68D02*
X1796Y68D01*
X1821Y68D02*
X1824Y68D01*
X1842Y68D02*
X1845Y68D01*
X1350Y67D02*
X1353Y67D01*
X1366Y67D02*
X1369Y67D01*
X1379Y67D02*
X1382Y67D01*
X1394Y67D02*
X1397Y67D01*
X1415Y67D02*
X1418Y67D01*
X1436Y67D02*
X1439Y67D01*
X1472Y67D02*
X1475Y67D01*
X1493Y67D02*
X1496Y67D01*
X1508Y67D02*
X1511Y67D01*
X1550Y67D02*
X1553Y67D01*
X1581Y67D02*
X1585Y67D01*
X1590Y67D02*
X1593Y67D01*
X1606Y67D02*
X1609Y67D01*
X1622Y67D02*
X1625Y67D01*
X1639Y67D02*
X1642Y67D01*
X1647Y67D02*
X1650Y67D01*
X1764Y67D02*
X1767Y67D01*
X1777Y67D02*
X1780Y67D01*
X1793Y67D02*
X1796Y67D01*
X1821Y67D02*
X1824Y67D01*
X1842Y67D02*
X1845Y67D01*
X1350Y66D02*
X1353Y66D01*
X1366Y66D02*
X1369Y66D01*
X1379Y66D02*
X1382Y66D01*
X1394Y66D02*
X1397Y66D01*
X1415Y66D02*
X1418Y66D01*
X1436Y66D02*
X1439Y66D01*
X1472Y66D02*
X1475Y66D01*
X1493Y66D02*
X1496Y66D01*
X1508Y66D02*
X1511Y66D01*
X1550Y66D02*
X1553Y66D01*
X1581Y66D02*
X1584Y66D01*
X1590Y66D02*
X1594Y66D01*
X1606Y66D02*
X1609Y66D01*
X1622Y66D02*
X1625Y66D01*
X1639Y66D02*
X1642Y66D01*
X1647Y66D02*
X1651Y66D01*
X1764Y66D02*
X1767Y66D01*
X1777Y66D02*
X1780Y66D01*
X1793Y66D02*
X1796Y66D01*
X1821Y66D02*
X1824Y66D01*
X1842Y66D02*
X1845Y66D01*
X1350Y65D02*
X1353Y65D01*
X1366Y65D02*
X1369Y65D01*
X1379Y65D02*
X1382Y65D01*
X1394Y65D02*
X1397Y65D01*
X1415Y65D02*
X1418Y65D01*
X1436Y65D02*
X1439Y65D01*
X1472Y65D02*
X1475Y65D01*
X1493Y65D02*
X1496Y65D01*
X1508Y65D02*
X1511Y65D01*
X1550Y65D02*
X1553Y65D01*
X1580Y65D02*
X1584Y65D01*
X1591Y65D02*
X1594Y65D01*
X1606Y65D02*
X1609Y65D01*
X1622Y65D02*
X1625Y65D01*
X1639Y65D02*
X1642Y65D01*
X1648Y65D02*
X1651Y65D01*
X1764Y65D02*
X1767Y65D01*
X1777Y65D02*
X1780Y65D01*
X1793Y65D02*
X1796Y65D01*
X1821Y65D02*
X1824Y65D01*
X1842Y65D02*
X1845Y65D01*
X1350Y64D02*
X1353Y64D01*
X1366Y64D02*
X1369Y64D01*
X1379Y64D02*
X1382Y64D01*
X1394Y64D02*
X1397Y64D01*
X1415Y64D02*
X1418Y64D01*
X1436Y64D02*
X1439Y64D01*
X1472Y64D02*
X1475Y64D01*
X1493Y64D02*
X1496Y64D01*
X1508Y64D02*
X1511Y64D01*
X1550Y64D02*
X1553Y64D01*
X1580Y64D02*
X1583Y64D01*
X1591Y64D02*
X1595Y64D01*
X1606Y64D02*
X1609Y64D01*
X1621Y64D02*
X1625Y64D01*
X1639Y64D02*
X1642Y64D01*
X1648Y64D02*
X1652Y64D01*
X1764Y64D02*
X1767Y64D01*
X1777Y64D02*
X1780Y64D01*
X1793Y64D02*
X1796Y64D01*
X1821Y64D02*
X1824Y64D01*
X1842Y64D02*
X1845Y64D01*
X1350Y63D02*
X1353Y63D01*
X1366Y63D02*
X1369Y63D01*
X1379Y63D02*
X1382Y63D01*
X1394Y63D02*
X1397Y63D01*
X1415Y63D02*
X1418Y63D01*
X1436Y63D02*
X1439Y63D01*
X1472Y63D02*
X1475Y63D01*
X1493Y63D02*
X1496Y63D01*
X1508Y63D02*
X1511Y63D01*
X1550Y63D02*
X1553Y63D01*
X1579Y63D02*
X1583Y63D01*
X1592Y63D02*
X1595Y63D01*
X1606Y63D02*
X1624Y63D01*
X1639Y63D02*
X1642Y63D01*
X1649Y63D02*
X1652Y63D01*
X1764Y63D02*
X1767Y63D01*
X1777Y63D02*
X1780Y63D01*
X1793Y63D02*
X1796Y63D01*
X1821Y63D02*
X1824Y63D01*
X1842Y63D02*
X1845Y63D01*
X1350Y62D02*
X1353Y62D01*
X1366Y62D02*
X1369Y62D01*
X1379Y62D02*
X1382Y62D01*
X1394Y62D02*
X1397Y62D01*
X1415Y62D02*
X1418Y62D01*
X1436Y62D02*
X1439Y62D01*
X1472Y62D02*
X1475Y62D01*
X1493Y62D02*
X1496Y62D01*
X1508Y62D02*
X1511Y62D01*
X1550Y62D02*
X1553Y62D01*
X1579Y62D02*
X1582Y62D01*
X1592Y62D02*
X1596Y62D01*
X1606Y62D02*
X1624Y62D01*
X1639Y62D02*
X1642Y62D01*
X1649Y62D02*
X1653Y62D01*
X1764Y62D02*
X1767Y62D01*
X1777Y62D02*
X1780Y62D01*
X1793Y62D02*
X1796Y62D01*
X1821Y62D02*
X1824Y62D01*
X1842Y62D02*
X1845Y62D01*
X1350Y61D02*
X1353Y61D01*
X1366Y61D02*
X1369Y61D01*
X1379Y61D02*
X1382Y61D01*
X1394Y61D02*
X1397Y61D01*
X1415Y61D02*
X1418Y61D01*
X1436Y61D02*
X1439Y61D01*
X1472Y61D02*
X1475Y61D01*
X1493Y61D02*
X1496Y61D01*
X1508Y61D02*
X1511Y61D01*
X1550Y61D02*
X1553Y61D01*
X1578Y61D02*
X1582Y61D01*
X1593Y61D02*
X1596Y61D01*
X1606Y61D02*
X1623Y61D01*
X1639Y61D02*
X1642Y61D01*
X1650Y61D02*
X1653Y61D01*
X1764Y61D02*
X1767Y61D01*
X1777Y61D02*
X1780Y61D01*
X1793Y61D02*
X1796Y61D01*
X1821Y61D02*
X1824Y61D01*
X1842Y61D02*
X1845Y61D01*
X1350Y60D02*
X1353Y60D01*
X1366Y60D02*
X1369Y60D01*
X1379Y60D02*
X1397Y60D01*
X1415Y60D02*
X1418Y60D01*
X1436Y60D02*
X1439Y60D01*
X1472Y60D02*
X1475Y60D01*
X1493Y60D02*
X1496Y60D01*
X1508Y60D02*
X1511Y60D01*
X1550Y60D02*
X1553Y60D01*
X1578Y60D02*
X1581Y60D01*
X1593Y60D02*
X1596Y60D01*
X1606Y60D02*
X1621Y60D01*
X1639Y60D02*
X1642Y60D01*
X1650Y60D02*
X1653Y60D01*
X1693Y60D02*
X1709Y60D01*
X1751Y60D02*
X1767Y60D01*
X1777Y60D02*
X1780Y60D01*
X1793Y60D02*
X1796Y60D01*
X1808Y60D02*
X1824Y60D01*
X1842Y60D02*
X1845Y60D01*
X1350Y59D02*
X1353Y59D01*
X1365Y59D02*
X1369Y59D01*
X1379Y59D02*
X1397Y59D01*
X1415Y59D02*
X1418Y59D01*
X1436Y59D02*
X1439Y59D01*
X1472Y59D02*
X1475Y59D01*
X1493Y59D02*
X1496Y59D01*
X1507Y59D02*
X1511Y59D01*
X1550Y59D02*
X1553Y59D01*
X1578Y59D02*
X1581Y59D01*
X1594Y59D02*
X1597Y59D01*
X1606Y59D02*
X1609Y59D01*
X1613Y59D02*
X1617Y59D01*
X1639Y59D02*
X1642Y59D01*
X1650Y59D02*
X1653Y59D01*
X1692Y59D02*
X1710Y59D01*
X1750Y59D02*
X1767Y59D01*
X1777Y59D02*
X1780Y59D01*
X1793Y59D02*
X1796Y59D01*
X1807Y59D02*
X1824Y59D01*
X1842Y59D02*
X1845Y59D01*
X1350Y58D02*
X1368Y58D01*
X1379Y58D02*
X1397Y58D01*
X1415Y58D02*
X1418Y58D01*
X1436Y58D02*
X1439Y58D01*
X1472Y58D02*
X1475Y58D01*
X1493Y58D02*
X1511Y58D01*
X1550Y58D02*
X1553Y58D01*
X1578Y58D02*
X1581Y58D01*
X1594Y58D02*
X1597Y58D01*
X1606Y58D02*
X1609Y58D01*
X1614Y58D02*
X1618Y58D01*
X1639Y58D02*
X1642Y58D01*
X1651Y58D02*
X1654Y58D01*
X1692Y58D02*
X1710Y58D01*
X1749Y58D02*
X1767Y58D01*
X1777Y58D02*
X1780Y58D01*
X1793Y58D02*
X1796Y58D01*
X1806Y58D02*
X1823Y58D01*
X1842Y58D02*
X1845Y58D01*
X1350Y57D02*
X1368Y57D01*
X1379Y57D02*
X1397Y57D01*
X1415Y57D02*
X1418Y57D01*
X1436Y57D02*
X1439Y57D01*
X1472Y57D02*
X1475Y57D01*
X1493Y57D02*
X1510Y57D01*
X1550Y57D02*
X1553Y57D01*
X1578Y57D02*
X1581Y57D01*
X1593Y57D02*
X1597Y57D01*
X1606Y57D02*
X1609Y57D01*
X1615Y57D02*
X1618Y57D01*
X1639Y57D02*
X1642Y57D01*
X1650Y57D02*
X1653Y57D01*
X1692Y57D02*
X1710Y57D01*
X1749Y57D02*
X1766Y57D01*
X1777Y57D02*
X1780Y57D01*
X1793Y57D02*
X1796Y57D01*
X1806Y57D02*
X1822Y57D01*
X1842Y57D02*
X1845Y57D01*
X1350Y56D02*
X1367Y56D01*
X1379Y56D02*
X1382Y56D01*
X1394Y56D02*
X1397Y56D01*
X1415Y56D02*
X1418Y56D01*
X1436Y56D02*
X1439Y56D01*
X1472Y56D02*
X1475Y56D01*
X1493Y56D02*
X1509Y56D01*
X1550Y56D02*
X1553Y56D01*
X1578Y56D02*
X1581Y56D01*
X1593Y56D02*
X1596Y56D01*
X1606Y56D02*
X1609Y56D01*
X1615Y56D02*
X1619Y56D01*
X1639Y56D02*
X1642Y56D01*
X1650Y56D02*
X1653Y56D01*
X1692Y56D02*
X1710Y56D01*
X1749Y56D02*
X1752Y56D01*
X1777Y56D02*
X1780Y56D01*
X1793Y56D02*
X1796Y56D01*
X1806Y56D02*
X1809Y56D01*
X1842Y56D02*
X1845Y56D01*
X1850Y56D02*
X1852Y56D01*
X1350Y55D02*
X1365Y55D01*
X1379Y55D02*
X1382Y55D01*
X1394Y55D02*
X1397Y55D01*
X1415Y55D02*
X1418Y55D01*
X1436Y55D02*
X1439Y55D01*
X1472Y55D02*
X1475Y55D01*
X1493Y55D02*
X1507Y55D01*
X1550Y55D02*
X1553Y55D01*
X1579Y55D02*
X1582Y55D01*
X1593Y55D02*
X1596Y55D01*
X1606Y55D02*
X1609Y55D01*
X1616Y55D02*
X1619Y55D01*
X1639Y55D02*
X1642Y55D01*
X1649Y55D02*
X1653Y55D01*
X1693Y55D02*
X1710Y55D01*
X1749Y55D02*
X1752Y55D01*
X1777Y55D02*
X1780Y55D01*
X1793Y55D02*
X1796Y55D01*
X1806Y55D02*
X1809Y55D01*
X1842Y55D02*
X1845Y55D01*
X1850Y55D02*
X1853Y55D01*
X1350Y54D02*
X1353Y54D01*
X1379Y54D02*
X1382Y54D01*
X1394Y54D02*
X1397Y54D01*
X1415Y54D02*
X1418Y54D01*
X1436Y54D02*
X1439Y54D01*
X1472Y54D02*
X1475Y54D01*
X1493Y54D02*
X1496Y54D01*
X1550Y54D02*
X1553Y54D01*
X1579Y54D02*
X1582Y54D01*
X1592Y54D02*
X1596Y54D01*
X1606Y54D02*
X1609Y54D01*
X1616Y54D02*
X1620Y54D01*
X1639Y54D02*
X1642Y54D01*
X1649Y54D02*
X1652Y54D01*
X1749Y54D02*
X1752Y54D01*
X1777Y54D02*
X1780Y54D01*
X1793Y54D02*
X1796Y54D01*
X1806Y54D02*
X1809Y54D01*
X1842Y54D02*
X1845Y54D01*
X1850Y54D02*
X1853Y54D01*
X1350Y53D02*
X1353Y53D01*
X1379Y53D02*
X1382Y53D01*
X1394Y53D02*
X1397Y53D01*
X1415Y53D02*
X1418Y53D01*
X1436Y53D02*
X1439Y53D01*
X1472Y53D02*
X1475Y53D01*
X1493Y53D02*
X1496Y53D01*
X1550Y53D02*
X1553Y53D01*
X1580Y53D02*
X1583Y53D01*
X1592Y53D02*
X1595Y53D01*
X1606Y53D02*
X1609Y53D01*
X1617Y53D02*
X1621Y53D01*
X1639Y53D02*
X1642Y53D01*
X1648Y53D02*
X1652Y53D01*
X1749Y53D02*
X1752Y53D01*
X1777Y53D02*
X1780Y53D01*
X1793Y53D02*
X1796Y53D01*
X1806Y53D02*
X1809Y53D01*
X1842Y53D02*
X1845Y53D01*
X1850Y53D02*
X1853Y53D01*
X1350Y52D02*
X1353Y52D01*
X1379Y52D02*
X1382Y52D01*
X1394Y52D02*
X1397Y52D01*
X1415Y52D02*
X1418Y52D01*
X1436Y52D02*
X1439Y52D01*
X1472Y52D02*
X1475Y52D01*
X1493Y52D02*
X1496Y52D01*
X1550Y52D02*
X1553Y52D01*
X1580Y52D02*
X1584Y52D01*
X1591Y52D02*
X1595Y52D01*
X1606Y52D02*
X1609Y52D01*
X1618Y52D02*
X1621Y52D01*
X1639Y52D02*
X1642Y52D01*
X1648Y52D02*
X1651Y52D01*
X1749Y52D02*
X1752Y52D01*
X1777Y52D02*
X1780Y52D01*
X1793Y52D02*
X1796Y52D01*
X1806Y52D02*
X1809Y52D01*
X1842Y52D02*
X1845Y52D01*
X1850Y52D02*
X1853Y52D01*
X1350Y51D02*
X1353Y51D01*
X1379Y51D02*
X1382Y51D01*
X1394Y51D02*
X1397Y51D01*
X1415Y51D02*
X1418Y51D01*
X1436Y51D02*
X1439Y51D01*
X1472Y51D02*
X1475Y51D01*
X1493Y51D02*
X1496Y51D01*
X1550Y51D02*
X1553Y51D01*
X1581Y51D02*
X1584Y51D01*
X1591Y51D02*
X1594Y51D01*
X1606Y51D02*
X1609Y51D01*
X1618Y51D02*
X1622Y51D01*
X1639Y51D02*
X1642Y51D01*
X1647Y51D02*
X1651Y51D01*
X1749Y51D02*
X1752Y51D01*
X1777Y51D02*
X1780Y51D01*
X1793Y51D02*
X1796Y51D01*
X1806Y51D02*
X1809Y51D01*
X1842Y51D02*
X1845Y51D01*
X1850Y51D02*
X1853Y51D01*
X1350Y50D02*
X1353Y50D01*
X1379Y50D02*
X1382Y50D01*
X1394Y50D02*
X1397Y50D01*
X1415Y50D02*
X1418Y50D01*
X1436Y50D02*
X1439Y50D01*
X1472Y50D02*
X1475Y50D01*
X1493Y50D02*
X1496Y50D01*
X1550Y50D02*
X1553Y50D01*
X1581Y50D02*
X1585Y50D01*
X1590Y50D02*
X1594Y50D01*
X1606Y50D02*
X1609Y50D01*
X1619Y50D02*
X1622Y50D01*
X1639Y50D02*
X1642Y50D01*
X1647Y50D02*
X1650Y50D01*
X1749Y50D02*
X1752Y50D01*
X1777Y50D02*
X1780Y50D01*
X1793Y50D02*
X1796Y50D01*
X1806Y50D02*
X1809Y50D01*
X1842Y50D02*
X1845Y50D01*
X1850Y50D02*
X1853Y50D01*
X1350Y49D02*
X1353Y49D01*
X1379Y49D02*
X1382Y49D01*
X1394Y49D02*
X1397Y49D01*
X1415Y49D02*
X1418Y49D01*
X1436Y49D02*
X1439Y49D01*
X1472Y49D02*
X1475Y49D01*
X1493Y49D02*
X1496Y49D01*
X1550Y49D02*
X1553Y49D01*
X1582Y49D02*
X1585Y49D01*
X1590Y49D02*
X1593Y49D01*
X1606Y49D02*
X1609Y49D01*
X1619Y49D02*
X1623Y49D01*
X1639Y49D02*
X1642Y49D01*
X1646Y49D02*
X1650Y49D01*
X1749Y49D02*
X1752Y49D01*
X1777Y49D02*
X1780Y49D01*
X1793Y49D02*
X1796Y49D01*
X1806Y49D02*
X1809Y49D01*
X1842Y49D02*
X1845Y49D01*
X1850Y49D02*
X1853Y49D01*
X1350Y48D02*
X1353Y48D01*
X1379Y48D02*
X1382Y48D01*
X1394Y48D02*
X1397Y48D01*
X1415Y48D02*
X1418Y48D01*
X1436Y48D02*
X1439Y48D01*
X1472Y48D02*
X1475Y48D01*
X1493Y48D02*
X1496Y48D01*
X1550Y48D02*
X1553Y48D01*
X1582Y48D02*
X1586Y48D01*
X1589Y48D02*
X1593Y48D01*
X1606Y48D02*
X1609Y48D01*
X1620Y48D02*
X1624Y48D01*
X1639Y48D02*
X1642Y48D01*
X1646Y48D02*
X1649Y48D01*
X1749Y48D02*
X1752Y48D01*
X1777Y48D02*
X1780Y48D01*
X1793Y48D02*
X1796Y48D01*
X1806Y48D02*
X1809Y48D01*
X1842Y48D02*
X1845Y48D01*
X1850Y48D02*
X1853Y48D01*
X1350Y47D02*
X1353Y47D01*
X1379Y47D02*
X1382Y47D01*
X1394Y47D02*
X1397Y47D01*
X1415Y47D02*
X1418Y47D01*
X1436Y47D02*
X1439Y47D01*
X1472Y47D02*
X1475Y47D01*
X1493Y47D02*
X1496Y47D01*
X1550Y47D02*
X1553Y47D01*
X1583Y47D02*
X1586Y47D01*
X1588Y47D02*
X1592Y47D01*
X1606Y47D02*
X1609Y47D01*
X1621Y47D02*
X1624Y47D01*
X1638Y47D02*
X1642Y47D01*
X1645Y47D02*
X1649Y47D01*
X1749Y47D02*
X1752Y47D01*
X1777Y47D02*
X1780Y47D01*
X1792Y47D02*
X1796Y47D01*
X1806Y47D02*
X1809Y47D01*
X1842Y47D02*
X1845Y47D01*
X1849Y47D02*
X1853Y47D01*
X1350Y46D02*
X1353Y46D01*
X1379Y46D02*
X1382Y46D01*
X1394Y46D02*
X1397Y46D01*
X1408Y46D02*
X1426Y46D01*
X1436Y46D02*
X1454Y46D01*
X1465Y46D02*
X1482Y46D01*
X1493Y46D02*
X1496Y46D01*
X1550Y46D02*
X1568Y46D01*
X1583Y46D02*
X1592Y46D01*
X1606Y46D02*
X1609Y46D01*
X1621Y46D02*
X1625Y46D01*
X1635Y46D02*
X1648Y46D01*
X1749Y46D02*
X1767Y46D01*
X1777Y46D02*
X1796Y46D01*
X1806Y46D02*
X1824Y46D01*
X1834Y46D02*
X1853Y46D01*
X1350Y45D02*
X1353Y45D01*
X1379Y45D02*
X1382Y45D01*
X1394Y45D02*
X1397Y45D01*
X1407Y45D02*
X1426Y45D01*
X1436Y45D02*
X1454Y45D01*
X1464Y45D02*
X1483Y45D01*
X1493Y45D02*
X1496Y45D01*
X1550Y45D02*
X1568Y45D01*
X1584Y45D02*
X1591Y45D01*
X1606Y45D02*
X1609Y45D01*
X1622Y45D02*
X1625Y45D01*
X1635Y45D02*
X1648Y45D01*
X1749Y45D02*
X1767Y45D01*
X1778Y45D02*
X1795Y45D01*
X1806Y45D02*
X1824Y45D01*
X1834Y45D02*
X1853Y45D01*
X1351Y44D02*
X1353Y44D01*
X1379Y44D02*
X1382Y44D01*
X1395Y44D02*
X1397Y44D01*
X1408Y44D02*
X1426Y44D01*
X1436Y44D02*
X1454Y44D01*
X1464Y44D02*
X1483Y44D01*
X1493Y44D02*
X1495Y44D01*
X1550Y44D02*
X1568Y44D01*
X1585Y44D02*
X1590Y44D01*
X1607Y44D02*
X1609Y44D01*
X1622Y44D02*
X1625Y44D01*
X1635Y44D02*
X1647Y44D01*
X1749Y44D02*
X1767Y44D01*
X1778Y44D02*
X1794Y44D01*
X1806Y44D02*
X1824Y44D01*
X1834Y44D02*
X1852Y44D01*
X1352Y43D02*
X1352Y43D01*
X1380Y43D02*
X1380Y43D01*
X1396Y43D02*
X1396Y43D01*
X1409Y43D02*
X1424Y43D01*
X1436Y43D02*
X1453Y43D01*
X1466Y43D02*
X1481Y43D01*
X1494Y43D02*
X1494Y43D01*
X1550Y43D02*
X1567Y43D01*
X1587Y43D02*
X1588Y43D01*
X1608Y43D02*
X1608Y43D01*
X1623Y43D02*
X1624Y43D01*
X1636Y43D02*
X1644Y43D01*
X1749Y43D02*
X1766Y43D01*
X1780Y43D02*
X1793Y43D01*
X1806Y43D02*
X1823Y43D01*
X1836Y43D02*
X1851Y43D01*
D02*
G04 End of Silk1*
M02*