; NON-PLATED HOLES START AT T1
; THROUGH (PLATED) HOLES START AT T100
M48
INCH
T100C0.035000
%
T100
X017549Y004597
X011549Y003597
X014549Y003597
X013549Y003597
X016549Y001597
X010549Y004597
X017549Y001597
X011549Y004597
X014549Y004597
X013549Y004597
X016549Y002597
X010549Y001597
X017549Y002597
X011549Y001597
X014549Y001597
X013549Y001597
X005549Y009597
X010549Y002597
X008549Y009597
X007549Y009597
X011549Y002597
X014549Y002597
X013549Y002597
X017549Y010597
X016549Y010597
X002549Y009597
X001549Y009597
X004549Y009597
X005549Y007597
X010549Y010597
X008549Y007597
X007549Y007597
X013549Y010597
X014549Y010597
X011549Y010597
X005549Y008597
X008549Y008597
X007549Y008597
X002549Y007597
X001549Y007597
X004549Y007597
X005549Y005597
X008549Y005597
X007549Y005597
X002549Y008597
X001549Y008597
X004549Y008597
X005549Y006597
X008549Y006597
X007549Y006597
X002549Y005597
X001549Y005597
X004549Y005597
X016549Y009597
X005549Y003597
X008549Y003597
X007549Y003597
X017549Y009597
X002549Y006597
X001549Y006597
X004549Y006597
X005549Y004597
X010549Y009597
X008549Y004597
X007549Y004597
X002549Y003597
X001549Y003597
X011549Y009597
X004549Y003597
X014549Y009597
X013549Y009597
X016549Y007597
X005549Y001597
X008549Y001597
X007549Y001597
X017549Y007597
X002549Y004597
X001549Y004597
X004549Y004597
X016549Y008597
X005549Y002597
X010549Y007597
X008549Y002597
X007549Y002597
X017549Y008597
X002549Y001597
X001549Y001597
X011549Y007597
X004549Y001597
X014549Y007597
X013549Y007597
X016549Y005597
X010549Y008597
X017549Y005597
X002549Y002597
X001549Y002597
X011549Y008597
X004549Y002597
X014549Y008597
X013549Y008597
X016549Y006597
X007549Y010597
X008549Y010597
X010549Y005597
X005549Y010597
X017549Y006597
X011549Y005597
X014549Y005597
X013549Y005597
X016549Y003597
X010549Y006597
X017549Y003597
X011549Y006597
X004549Y010597
X014549Y006597
X001549Y010597
X013549Y006597
X002549Y010597
X016549Y004597
X010549Y003597
T00
M30
