G04 MADE WITH FRITZING*
G04 WWW.FRITZING.ORG*
G04 DOUBLE SIDED*
G04 HOLES PLATED*
G04 CONTOUR ON CENTER OF CONTOUR VECTOR*
%ASAXBY*%
%FSLAX23Y23*%
%MOIN*%
%OFA0B0*%
%SFA1.0B1.0*%
%ADD10C,0.075000*%
%ADD11R,0.075000X0.075000*%
%ADD12C,0.024000*%
%LNCOPPER0*%
G90*
G70*
G54D10*
X1455Y1060D03*
X1755Y1060D03*
X1455Y960D03*
X1755Y960D03*
X1455Y860D03*
X1755Y860D03*
X1455Y760D03*
X1755Y760D03*
X1455Y660D03*
X1755Y660D03*
X1455Y560D03*
X1755Y560D03*
X1455Y460D03*
X1755Y460D03*
X1455Y360D03*
X1755Y360D03*
X1455Y260D03*
X1755Y260D03*
X1455Y160D03*
X1755Y160D03*
X1355Y1060D03*
X1655Y1060D03*
X1355Y960D03*
X1655Y960D03*
X1355Y860D03*
X1655Y860D03*
X1355Y760D03*
X1655Y760D03*
X1355Y660D03*
X1655Y660D03*
X1355Y560D03*
X1655Y560D03*
X1355Y460D03*
X1655Y460D03*
X1355Y360D03*
X1655Y360D03*
X1355Y260D03*
X1655Y260D03*
X1355Y160D03*
X1655Y160D03*
X855Y1060D03*
X1155Y1060D03*
X855Y960D03*
X1155Y960D03*
X855Y860D03*
X1155Y860D03*
X855Y760D03*
X1155Y760D03*
X855Y660D03*
X1155Y660D03*
X855Y560D03*
X1155Y560D03*
X855Y460D03*
X1155Y460D03*
X855Y360D03*
X1155Y360D03*
X855Y260D03*
X1155Y260D03*
X855Y160D03*
X1155Y160D03*
X755Y1060D03*
X1055Y1060D03*
X755Y960D03*
X1055Y960D03*
X755Y860D03*
X1055Y860D03*
X755Y760D03*
X1055Y760D03*
X755Y660D03*
X1055Y660D03*
X755Y560D03*
X1055Y560D03*
X755Y460D03*
X1055Y460D03*
X755Y360D03*
X1055Y360D03*
X755Y260D03*
X1055Y260D03*
X755Y160D03*
X1055Y160D03*
X255Y1060D03*
X555Y1060D03*
X255Y960D03*
X555Y960D03*
X255Y860D03*
X555Y860D03*
X255Y760D03*
X555Y760D03*
X255Y660D03*
X555Y660D03*
X255Y560D03*
X555Y560D03*
X255Y460D03*
X555Y460D03*
X255Y360D03*
X555Y360D03*
X255Y260D03*
X555Y260D03*
X255Y160D03*
X555Y160D03*
X155Y1060D03*
X455Y1060D03*
X155Y960D03*
X455Y960D03*
X155Y860D03*
X455Y860D03*
X155Y760D03*
X455Y760D03*
X155Y660D03*
X455Y660D03*
X155Y560D03*
X455Y560D03*
X155Y460D03*
X455Y460D03*
X155Y360D03*
X455Y360D03*
X155Y260D03*
X455Y260D03*
X155Y160D03*
X455Y160D03*
G54D11*
X1455Y1060D03*
X1355Y1060D03*
X855Y1060D03*
X755Y1060D03*
X255Y1060D03*
X155Y1060D03*
G54D12*
X226Y1060D02*
X184Y1060D01*
D02*
X226Y960D02*
X184Y960D01*
D02*
X226Y860D02*
X184Y860D01*
D02*
X226Y760D02*
X184Y760D01*
D02*
X226Y660D02*
X184Y660D01*
D02*
X226Y560D02*
X184Y560D01*
D02*
X226Y460D02*
X184Y460D01*
D02*
X226Y360D02*
X184Y360D01*
D02*
X226Y260D02*
X184Y260D01*
D02*
X526Y160D02*
X484Y160D01*
D02*
X526Y260D02*
X484Y260D01*
D02*
X526Y360D02*
X484Y360D01*
D02*
X526Y460D02*
X484Y460D01*
D02*
X526Y560D02*
X484Y560D01*
D02*
X526Y660D02*
X484Y660D01*
D02*
X526Y760D02*
X484Y760D01*
D02*
X526Y960D02*
X484Y960D01*
D02*
X526Y1060D02*
X484Y1060D01*
D02*
X526Y860D02*
X484Y860D01*
D02*
X226Y160D02*
X184Y160D01*
D02*
X55Y59D02*
X55Y360D01*
D02*
X55Y360D02*
X126Y360D01*
D02*
X958Y57D02*
X55Y59D01*
D02*
X1126Y660D02*
X1084Y660D01*
D02*
X1426Y960D02*
X1384Y960D01*
D02*
X1726Y860D02*
X1684Y860D01*
D02*
X1726Y660D02*
X1684Y660D01*
D02*
X1426Y1060D02*
X1384Y1060D01*
D02*
X56Y558D02*
X126Y559D01*
D02*
X56Y1159D02*
X56Y558D01*
D02*
X954Y1159D02*
X56Y1159D01*
D02*
X1257Y1159D02*
X954Y1159D01*
D02*
X1257Y358D02*
X1257Y1159D01*
D02*
X1184Y359D02*
X1257Y358D01*
D02*
X1126Y460D02*
X1084Y460D01*
D02*
X1726Y760D02*
X1684Y760D01*
D02*
X1126Y1060D02*
X1084Y1060D01*
D02*
X826Y760D02*
X784Y760D01*
D02*
X826Y960D02*
X784Y960D01*
D02*
X1726Y560D02*
X1684Y560D01*
D02*
X1726Y260D02*
X1684Y260D01*
D02*
X826Y860D02*
X784Y860D01*
D02*
X1726Y960D02*
X1684Y960D01*
D02*
X1426Y160D02*
X1384Y160D01*
D02*
X1126Y760D02*
X1084Y760D01*
D02*
X826Y560D02*
X784Y560D01*
D02*
X1126Y160D02*
X1084Y160D01*
D02*
X826Y260D02*
X784Y260D01*
D02*
X1726Y160D02*
X1684Y160D01*
D02*
X826Y160D02*
X784Y160D01*
D02*
X1426Y660D02*
X1384Y660D01*
D02*
X826Y660D02*
X784Y660D01*
D02*
X1126Y960D02*
X1084Y960D01*
D02*
X1426Y260D02*
X1384Y260D01*
D02*
X1126Y260D02*
X1084Y260D01*
D02*
X1426Y560D02*
X1384Y560D01*
D02*
X1426Y760D02*
X1384Y760D01*
D02*
X1426Y860D02*
X1384Y860D01*
D02*
X1726Y1060D02*
X1684Y1060D01*
D02*
X826Y1060D02*
X784Y1060D01*
D02*
X1726Y460D02*
X1684Y460D01*
D02*
X1126Y560D02*
X1084Y560D01*
D02*
X1257Y358D02*
X1257Y1159D01*
D02*
X1257Y1159D02*
X1853Y1159D01*
D02*
X1184Y359D02*
X1257Y358D01*
D02*
X1853Y1159D02*
X1853Y358D01*
D02*
X1853Y358D02*
X1784Y359D01*
D02*
X1126Y860D02*
X1084Y860D01*
D02*
X1555Y60D02*
X1555Y459D01*
D02*
X1555Y459D02*
X1484Y459D01*
D02*
X958Y57D02*
X1555Y60D01*
D02*
X953Y459D02*
X958Y57D01*
D02*
X884Y459D02*
X953Y459D01*
D02*
X1384Y360D02*
X1426Y360D01*
D02*
X784Y360D02*
X826Y360D01*
G04 End of Copper0*
M02*